<svg width="126" height="20" viewBox="0 0 126 20" fill="none" xmlns="http://www.w3.org/2000/svg">
<path d="M0.0109817 19.2904L0.035939 1.32101H3.48007V12.3023L8.04728 5.81335H12.2401L7.37343 12.5519L12.5646 19.2904H8.14711L3.48007 12.8014V19.2904H0.0109817ZM13.8064 19.2904V5.81335H16.8013V9.10774L16.4769 8.68346C16.6516 8.21759 16.8845 7.79331 17.1757 7.41063C17.4668 7.02795 17.8246 6.71182 18.2488 6.46225C18.5733 6.26259 18.9268 6.10868 19.3095 6.00053C19.6922 5.88406 20.0874 5.81335 20.495 5.78839C20.9026 5.75512 21.3103 5.76344 21.7179 5.81335V8.98295C21.3436 8.86648 20.9068 8.82904 20.4077 8.87064C19.9168 8.90392 19.4717 9.01622 19.0724 9.20757C18.6731 9.39059 18.3362 9.636 18.0617 9.94381C17.7871 10.2433 17.5791 10.601 17.4377 11.017C17.2963 11.4246 17.2256 11.8863 17.2256 12.4021V19.2904H13.8064ZM24.3412 3.94154V0.946649H27.7354V3.94154H24.3412ZM24.3412 19.2904V5.81335H27.7354V19.2904H24.3412ZM36.7425 19.6647C35.0454 19.6647 33.6727 19.2821 32.6245 18.5167C31.5846 17.743 30.9524 16.6532 30.7278 15.2473L34.1968 14.7232C34.3383 15.3554 34.6502 15.8504 35.1327 16.2081C35.6236 16.5659 36.2433 16.7447 36.9921 16.7447C37.6077 16.7447 38.0819 16.6282 38.4146 16.3953C38.7474 16.1541 38.9138 15.8213 38.9138 15.397C38.9138 15.1308 38.8472 14.9187 38.7141 14.7606C38.581 14.5942 38.2815 14.432 37.8157 14.2739C37.3581 14.1159 36.6427 13.9079 35.6693 13.65C34.5712 13.3671 33.6935 13.051 33.0363 12.7016C32.3791 12.3522 31.9049 11.9362 31.6137 11.4537C31.3226 10.9629 31.177 10.3722 31.177 9.68176C31.177 8.81657 31.3974 8.06784 31.8384 7.43559C32.2793 6.79501 32.8991 6.30418 33.6977 5.9631C34.5046 5.61369 35.453 5.43899 36.5428 5.43899C37.5994 5.43899 38.5353 5.60121 39.3506 5.92566C40.1658 6.25011 40.823 6.71182 41.3222 7.3108C41.8297 7.90978 42.1416 8.61691 42.2581 9.43218L38.789 10.0561C38.7308 9.55697 38.5145 9.16181 38.1401 8.87064C37.7658 8.57947 37.2583 8.40893 36.6177 8.35901C35.9938 8.31742 35.4905 8.40061 35.1078 8.60859C34.7334 8.81656 34.5462 9.11605 34.5462 9.50705C34.5462 9.73999 34.6253 9.93549 34.7833 10.0936C34.9497 10.2516 35.2866 10.4138 35.7941 10.5802C36.3099 10.7466 37.0919 10.9629 38.1401 11.2291C39.1634 11.4953 39.9828 11.8073 40.5984 12.165C41.2224 12.5144 41.6758 12.9387 41.9586 13.4379C42.2415 13.9287 42.3829 14.5235 42.3829 15.2223C42.3829 16.6033 41.8837 17.6889 40.8854 18.4793C39.8871 19.2696 38.5062 19.6647 36.7425 19.6647ZM54.3094 19.2904V12.9262C54.3094 12.6184 54.2928 12.2274 54.2595 11.7532C54.2262 11.2707 54.1222 10.7882 53.9475 10.3057C53.7728 9.82318 53.4858 9.4197 53.0865 9.09526C52.6955 8.77081 52.1381 8.60859 51.4144 8.60859C51.1232 8.60859 50.8112 8.65434 50.4785 8.74585C50.1457 8.83736 49.8337 9.01622 49.5425 9.28244C49.2514 9.54033 49.0101 9.92301 48.8188 10.4305C48.6358 10.9379 48.5443 11.6118 48.5443 12.452L46.5976 11.5286C46.5976 10.4638 46.8139 9.46546 47.2465 8.53371C47.6791 7.60197 48.328 6.84909 49.1931 6.27506C50.0667 5.70104 51.1648 5.41403 52.4875 5.41403C53.5441 5.41403 54.4051 5.59289 55.0706 5.95062C55.7362 6.30834 56.2519 6.76174 56.618 7.3108C56.9923 7.85986 57.2586 8.43388 57.4166 9.03286C57.5747 9.62352 57.6704 10.1643 57.7036 10.6551C57.7369 11.1459 57.7536 11.5037 57.7536 11.7283V19.2904H54.3094ZM45.1001 19.2904V1.32101H48.12V10.5553H48.5443V19.2904H45.1001Z" fill="#31353B"/>
<path d="M68.3041 19.2904V16.4951H60.4924V13.3255L66.1578 1.32101H70.0511L64.3858 13.3255H68.3041V8.8332H71.7482V13.3255H73.3455V16.4951H71.7482V19.2904H68.3041ZM80.0899 19.6647C79.1249 19.6647 78.3054 19.4817 77.6316 19.1157C76.966 18.7413 76.4586 18.2463 76.1092 17.6307C75.7681 17.0068 75.5975 16.3204 75.5975 15.5717C75.5975 14.9478 75.6932 14.3779 75.8846 13.8621C76.0759 13.3463 76.3837 12.8929 76.808 12.5019C77.2406 12.1026 77.8188 11.7699 78.5425 11.5037C79.0417 11.3206 79.6365 11.1584 80.327 11.017C81.0175 10.8756 81.7995 10.7424 82.673 10.6177C83.5465 10.4846 84.5074 10.339 85.5556 10.1809L84.3326 10.8548C84.3326 10.0561 84.1413 9.46962 83.7586 9.09526C83.3759 8.72089 82.7354 8.53371 81.8369 8.53371C81.3378 8.53371 80.8178 8.65434 80.2771 8.8956C79.7363 9.13685 79.3578 9.56529 79.1415 10.1809L76.0717 9.20757C76.4128 8.0928 77.0534 7.18601 77.9935 6.4872C78.9335 5.78839 80.2147 5.43899 81.8369 5.43899C83.0265 5.43899 84.0831 5.62201 85.0065 5.98805C85.9299 6.3541 86.6287 6.98635 87.1029 7.88482C87.3691 8.38397 87.5272 8.88312 87.5771 9.38227C87.627 9.88142 87.652 10.4388 87.652 11.0544V19.2904H84.6821V16.5201L85.1063 17.0941C84.4491 18.0009 83.7378 18.6581 82.9725 19.0658C82.2154 19.4651 81.2546 19.6647 80.0899 19.6647ZM80.8136 16.9943C81.4376 16.9943 81.9617 16.8861 82.386 16.6698C82.8186 16.4452 83.1596 16.1915 83.4092 15.9086C83.6671 15.6258 83.8418 15.3887 83.9333 15.1974C84.108 14.8313 84.2079 14.407 84.2328 13.9245C84.2661 13.4337 84.2827 13.0261 84.2827 12.7016L85.281 12.9512C84.2744 13.1176 83.4591 13.259 82.8352 13.3755C82.2113 13.4836 81.708 13.5834 81.3253 13.6749C80.9426 13.7665 80.6057 13.8663 80.3145 13.9744C79.9817 14.1075 79.7114 14.2531 79.5034 14.4112C79.3037 14.5609 79.154 14.7273 79.0541 14.9103C78.9626 15.0934 78.9169 15.2972 78.9169 15.5218C78.9169 15.8296 78.9918 16.0958 79.1415 16.3204C79.2996 16.5367 79.52 16.7031 79.8029 16.8196C80.0857 16.9361 80.4226 16.9943 80.8136 16.9943ZM91.1462 19.2904V0.946649H94.5404V19.2904H91.1462ZM104.546 19.6647C103.165 19.6647 101.946 19.3694 100.89 18.7787C99.8414 18.1798 99.0178 17.3603 98.4188 16.3204C97.8281 15.2722 97.5328 14.0743 97.5328 12.7266C97.5328 11.2541 97.824 9.97293 98.4063 8.88312C98.9886 7.79331 99.7914 6.94892 100.815 6.34994C101.838 5.74264 103.015 5.43899 104.346 5.43899C105.76 5.43899 106.963 5.77176 107.953 6.43729C108.943 7.10282 109.675 8.03872 110.149 9.245C110.623 10.4513 110.789 11.8697 110.648 13.5002H107.291V12.2524C107.291 10.8797 107.071 9.89389 106.63 9.29492C106.197 8.68762 105.486 8.38397 104.496 8.38397C103.34 8.38397 102.487 8.73753 101.938 9.44466C101.397 10.1435 101.127 11.1792 101.127 12.5519C101.127 13.8081 101.397 14.7814 101.938 15.4719C102.487 16.1541 103.29 16.4951 104.346 16.4951C105.012 16.4951 105.582 16.3496 106.056 16.0584C106.53 15.7672 106.892 15.3471 107.141 14.798L110.536 15.7714C110.028 17.0026 109.225 17.9593 108.127 18.6415C107.037 19.3237 105.844 19.6647 104.546 19.6647ZM100.078 13.5002V10.9795H109.013V13.5002H100.078ZM111.481 19.2904L116.297 12.477L111.581 5.81335H115.574L118.269 9.80654L120.915 5.81335H124.908L120.191 12.477L125.033 19.2904H121.039L118.269 15.1474L115.474 19.2904H111.481Z" fill="#FF0000"/>
</svg>
