<svg width="200" height="147" viewBox="0 0 200 147" fill="none" xmlns="http://www.w3.org/2000/svg">
<path d="M130.681 31.6723L100.025 13.973L69.3691 31.6723V67.0709L100.025 84.7703L130.681 67.0709V31.6723Z" fill="#1644F5"/>
<path d="M115.164 34.2325C112.127 31.1953 108.257 29.127 104.045 28.289C99.8321 27.4511 95.4656 27.8812 91.4973 29.5249C87.529 31.1686 84.1373 33.9521 81.751 37.5234C79.3647 41.0948 78.0911 45.2935 78.0911 49.5887C78.0911 53.8839 79.3647 58.0827 81.751 61.654C84.1373 65.2254 87.5291 68.0089 91.4973 69.6526C95.4656 71.2963 99.8321 71.7264 104.045 70.8884C108.257 70.0505 112.127 67.9821 115.164 64.9449L106.364 56.1443C105.067 57.4409 103.415 58.3238 101.617 58.6815C99.8183 59.0393 97.9542 58.8557 96.2602 58.154C94.5661 57.4523 93.1182 56.264 92.0995 54.7394C91.0808 53.2148 90.5371 51.4224 90.5371 49.5887C90.5371 47.7551 91.0808 45.9627 92.0995 44.4381C93.1182 42.9135 94.5661 41.7252 96.2602 41.0235C97.9542 40.3218 99.8183 40.1382 101.617 40.4959C103.415 40.8536 105.067 41.7366 106.364 43.0332L115.164 34.2325Z" fill="white"/>
<path d="M103.44 55.6692H101.519V53.1984H103.44V51.0021H106.186V53.1984H108.108V55.6692H106.186V57.8655H103.44V55.6692ZM113.41 55.6692H111.488V53.1984H113.41V51.0021H116.155V53.1984H118.077V55.6692H116.155V57.8655H113.41V55.6692Z" fill="white"/>
<path d="M90.6482 110.097C89.5398 110.097 88.5806 109.857 87.7706 109.378C86.9713 108.888 86.3532 108.211 85.9162 107.348C85.4793 106.474 85.2608 105.466 85.2608 104.326C85.2608 103.175 85.4793 102.168 85.9162 101.305C86.3532 100.431 86.9713 99.7486 87.7706 99.2584C88.5806 98.7681 89.5398 98.523 90.6482 98.523C91.9591 98.523 93.0302 98.8427 93.8615 99.4822C94.6928 100.122 95.2204 101.017 95.4442 102.168H93.5578C93.4085 101.518 93.0888 101.001 92.5986 100.617C92.1083 100.234 91.4529 100.042 90.6322 100.042C89.5132 100.042 88.6286 100.425 87.9785 101.193C87.3284 101.949 87.0033 102.994 87.0033 104.326C87.0033 105.648 87.3284 106.687 87.9785 107.443C88.6286 108.2 89.5132 108.579 90.6322 108.579C91.4529 108.579 92.1083 108.397 92.5986 108.035C93.0888 107.673 93.4085 107.177 93.5578 106.548H95.4442C95.2204 107.657 94.6928 108.525 93.8615 109.154C93.0302 109.783 91.9591 110.097 90.6482 110.097ZM97.131 105.973V104.55H100.152V101.72H101.623V104.55H104.645V105.973H101.623V108.818H100.152V105.973H97.131ZM106.561 105.973V104.55H109.582V101.72H111.053V104.55H114.074V105.973H111.053V108.818H109.582V105.973H106.561Z" fill="#2E2E48"/>
<path d="M31.868 128.189L34.814 120.196H35.8303L38.765 128.189H37.7487L37.0179 126.134H33.6151L32.8728 128.189H31.868ZM33.9005 125.357H36.7324L35.3165 121.406L33.9005 125.357ZM40.0104 130.701V122.525H40.8782L40.9696 123.462C41.1523 123.188 41.4111 122.94 41.746 122.72C42.0886 122.499 42.5225 122.388 43.0478 122.388C43.6111 122.388 44.1021 122.518 44.5208 122.777C44.9395 123.035 45.2631 123.389 45.4914 123.839C45.7274 124.288 45.8454 124.798 45.8454 125.369C45.8454 125.94 45.7274 126.45 45.4914 126.899C45.2631 127.34 44.9357 127.691 44.5094 127.949C44.0907 128.201 43.5997 128.326 43.0364 128.326C42.572 128.326 42.1571 128.231 41.7917 128.041C41.4339 127.85 41.1599 127.584 40.9696 127.241V130.701H40.0104ZM42.9336 127.493C43.3142 127.493 43.6492 127.405 43.9385 127.23C44.2277 127.047 44.4561 126.796 44.6236 126.476C44.7911 126.157 44.8748 125.784 44.8748 125.357C44.8748 124.931 44.7911 124.558 44.6236 124.238C44.4561 123.919 44.2277 123.671 43.9385 123.496C43.6492 123.313 43.3142 123.222 42.9336 123.222C42.553 123.222 42.218 123.313 41.9287 123.496C41.6395 123.671 41.4111 123.919 41.2436 124.238C41.0761 124.558 40.9924 124.931 40.9924 125.357C40.9924 125.784 41.0761 126.157 41.2436 126.476C41.4111 126.796 41.6395 127.047 41.9287 127.23C42.218 127.405 42.553 127.493 42.9336 127.493ZM47.2948 130.701V122.525H48.1627L48.254 123.462C48.4367 123.188 48.6955 122.94 49.0305 122.72C49.3731 122.499 49.807 122.388 50.3323 122.388C50.8956 122.388 51.3866 122.518 51.8053 122.777C52.224 123.035 52.5475 123.389 52.7759 123.839C53.0119 124.288 53.1299 124.798 53.1299 125.369C53.1299 125.94 53.0119 126.45 52.7759 126.899C52.5475 127.34 52.2202 127.691 51.7939 127.949C51.3752 128.201 50.8842 128.326 50.3208 128.326C49.8565 128.326 49.4416 128.231 49.0762 128.041C48.7184 127.85 48.4443 127.584 48.254 127.241V130.701H47.2948ZM50.2181 127.493C50.5987 127.493 50.9337 127.405 51.2229 127.23C51.5122 127.047 51.7406 126.796 51.9081 126.476C52.0756 126.157 52.1593 125.784 52.1593 125.357C52.1593 124.931 52.0756 124.558 51.9081 124.238C51.7406 123.919 51.5122 123.671 51.2229 123.496C50.9337 123.313 50.5987 123.222 50.2181 123.222C49.8374 123.222 49.5025 123.313 49.2132 123.496C48.9239 123.671 48.6956 123.919 48.5281 124.238C48.3606 124.558 48.2769 124.931 48.2769 125.357C48.2769 125.784 48.3606 126.157 48.5281 126.476C48.6956 126.796 48.9239 127.047 49.2132 127.23C49.5025 127.405 49.8374 127.493 50.2181 127.493ZM54.5793 128.189V119.968H55.5385V128.189H54.5793ZM57.8072 121.269C57.6169 121.269 57.457 121.208 57.3276 121.087C57.2058 120.957 57.1449 120.797 57.1449 120.607C57.1449 120.424 57.2058 120.272 57.3276 120.15C57.457 120.028 57.6169 119.968 57.8072 119.968C57.9899 119.968 58.146 120.028 58.2754 120.15C58.4048 120.272 58.4695 120.424 58.4695 120.607C58.4695 120.797 58.4048 120.957 58.2754 121.087C58.146 121.208 57.9899 121.269 57.8072 121.269ZM57.3276 128.189V122.525H58.2868V128.189H57.3276ZM62.6746 128.326C62.1341 128.326 61.6469 128.204 61.213 127.961C60.7867 127.71 60.4479 127.363 60.1967 126.922C59.9531 126.473 59.8313 125.951 59.8313 125.357C59.8313 124.764 59.9531 124.246 60.1967 123.804C60.4479 123.355 60.7867 123.009 61.213 122.765C61.6469 122.514 62.1341 122.388 62.6746 122.388C63.3445 122.388 63.9078 122.563 64.3646 122.914C64.829 123.264 65.1221 123.732 65.2439 124.318H64.2618C64.1857 123.968 63.9992 123.698 63.7023 123.507C63.4054 123.31 63.059 123.211 62.6632 123.211C62.3434 123.211 62.0428 123.29 61.7611 123.45C61.4794 123.61 61.251 123.85 61.0759 124.17C60.9009 124.489 60.8133 124.885 60.8133 125.357C60.8133 125.829 60.9009 126.225 61.0759 126.545C61.251 126.865 61.4794 127.108 61.7611 127.276C62.0428 127.436 62.3434 127.515 62.6632 127.515C63.059 127.515 63.4054 127.42 63.7023 127.23C63.9992 127.032 64.1857 126.754 64.2618 126.396H65.2439C65.1297 126.967 64.8404 127.432 64.376 127.79C63.9116 128.147 63.3445 128.326 62.6746 128.326ZM68.5817 128.326C68.1098 128.326 67.7177 128.246 67.4056 128.086C67.0935 127.927 66.8613 127.713 66.709 127.447C66.5568 127.181 66.4807 126.891 66.4807 126.579C66.4807 126.001 66.7014 125.555 67.143 125.243C67.5845 124.931 68.1859 124.775 68.9472 124.775H70.4773V124.706C70.4773 124.212 70.3479 123.839 70.089 123.587C69.8302 123.329 69.4838 123.199 69.0499 123.199C68.6769 123.199 68.3534 123.294 68.0793 123.485C67.8129 123.667 67.6454 123.938 67.5769 124.295H66.5949C66.6329 123.884 66.7699 123.538 67.0059 123.256C67.2495 122.975 67.5502 122.761 67.908 122.617C68.2658 122.465 68.6465 122.388 69.0499 122.388C69.8416 122.388 70.4354 122.602 70.8313 123.028C71.2347 123.447 71.4365 124.006 71.4365 124.706V128.189H70.5801L70.523 127.173C70.3631 127.493 70.1271 127.767 69.815 127.995C69.5105 128.216 69.0994 128.326 68.5817 128.326ZM68.7302 127.515C69.0956 127.515 69.4077 127.42 69.6665 127.23C69.933 127.04 70.1347 126.792 70.2717 126.488C70.4088 126.183 70.4773 125.864 70.4773 125.529V125.517H69.0271C68.4638 125.517 68.0641 125.616 67.8281 125.814C67.5997 126.004 67.4855 126.244 67.4855 126.533C67.4855 126.83 67.5921 127.07 67.8053 127.253C68.026 127.428 68.3343 127.515 68.7302 127.515ZM75.0716 128.189C74.554 128.189 74.1467 128.064 73.8498 127.812C73.5529 127.561 73.4045 127.108 73.4045 126.454V123.336H72.4224V122.525H73.4045L73.5301 121.167H74.3636V122.525H76.0308V123.336H74.3636V126.454C74.3636 126.811 74.436 127.055 74.5806 127.184C74.7252 127.306 74.9803 127.367 75.3457 127.367H75.9395V128.189H75.0716ZM77.946 121.269C77.7557 121.269 77.5958 121.208 77.4664 121.087C77.3446 120.957 77.2837 120.797 77.2837 120.607C77.2837 120.424 77.3446 120.272 77.4664 120.15C77.5958 120.028 77.7557 119.968 77.946 119.968C78.1287 119.968 78.2847 120.028 78.4141 120.15C78.5436 120.272 78.6083 120.424 78.6083 120.607C78.6083 120.797 78.5436 120.957 78.4141 121.087C78.2847 121.208 78.1287 121.269 77.946 121.269ZM77.4664 128.189V122.525H78.4256V128.189H77.4664ZM82.7905 128.326C82.2577 128.326 81.7781 128.204 81.3518 127.961C80.9255 127.717 80.5867 127.375 80.3355 126.933C80.0919 126.484 79.9701 125.959 79.9701 125.357C79.9701 124.756 80.0957 124.234 80.3469 123.793C80.5981 123.344 80.9369 122.997 81.3632 122.754C81.7971 122.51 82.2805 122.388 82.8134 122.388C83.3463 122.388 83.8259 122.51 84.2522 122.754C84.6785 122.997 85.0134 123.344 85.257 123.793C85.5082 124.234 85.6339 124.756 85.6339 125.357C85.6339 125.959 85.5082 126.484 85.257 126.933C85.0058 127.375 84.6632 127.717 84.2293 127.961C83.803 128.204 83.3234 128.326 82.7905 128.326ZM82.7905 127.504C83.1179 127.504 83.4224 127.424 83.7041 127.264C83.9857 127.104 84.2141 126.865 84.3892 126.545C84.5643 126.225 84.6518 125.829 84.6518 125.357C84.6518 124.885 84.5643 124.489 84.3892 124.17C84.2217 123.85 83.9971 123.61 83.7155 123.45C83.4338 123.29 83.1331 123.211 82.8134 123.211C82.486 123.211 82.1815 123.29 81.8999 123.45C81.6182 123.61 81.3898 123.85 81.2147 124.17C81.0396 124.489 80.9521 124.885 80.9521 125.357C80.9521 125.829 81.0396 126.225 81.2147 126.545C81.3898 126.865 81.6144 127.104 81.8884 127.264C82.1701 127.424 82.4708 127.504 82.7905 127.504ZM87.0817 128.189V122.525H87.9496L88.0067 123.542C88.1894 123.184 88.452 122.902 88.7946 122.697C89.1371 122.491 89.5254 122.388 89.9593 122.388C90.6292 122.388 91.1621 122.594 91.558 123.005C91.9614 123.408 92.1632 124.033 92.1632 124.878V128.189H91.204V124.98C91.204 123.801 90.7168 123.211 89.7423 123.211C89.2551 123.211 88.8479 123.389 88.5205 123.747C88.2008 124.097 88.0409 124.6 88.0409 125.255V128.189H87.0817ZM96.9239 128.189V120.196H99.3789C100.787 120.196 101.823 120.554 102.485 121.269C103.155 121.985 103.49 122.967 103.49 124.215C103.49 125.441 103.155 126.412 102.485 127.127C101.823 127.835 100.787 128.189 99.3789 128.189H96.9239ZM97.8831 127.39H99.3561C100.133 127.39 100.749 127.264 101.206 127.013C101.67 126.754 102.001 126.389 102.199 125.917C102.397 125.437 102.496 124.87 102.496 124.215C102.496 123.546 102.397 122.971 102.199 122.491C102.001 122.012 101.67 121.642 101.206 121.384C100.749 121.125 100.133 120.995 99.3561 120.995H97.8831V127.39ZM107.478 128.326C106.938 128.326 106.458 128.204 106.039 127.961C105.621 127.71 105.29 127.363 105.046 126.922C104.81 126.48 104.692 125.959 104.692 125.357C104.692 124.764 104.81 124.246 105.046 123.804C105.282 123.355 105.609 123.009 106.028 122.765C106.454 122.514 106.945 122.388 107.501 122.388C108.049 122.388 108.521 122.514 108.917 122.765C109.32 123.009 109.629 123.332 109.842 123.736C110.055 124.139 110.162 124.573 110.162 125.038C110.162 125.121 110.158 125.205 110.15 125.289C110.15 125.373 110.15 125.468 110.15 125.574H105.64C105.663 126.008 105.762 126.37 105.937 126.659C106.119 126.941 106.344 127.154 106.61 127.299C106.884 127.443 107.174 127.515 107.478 127.515C107.874 127.515 108.205 127.424 108.472 127.241C108.738 127.059 108.932 126.811 109.054 126.499H110.002C109.85 127.024 109.556 127.462 109.123 127.812C108.696 128.155 108.148 128.326 107.478 128.326ZM107.478 123.199C107.021 123.199 106.614 123.34 106.256 123.622C105.906 123.896 105.705 124.299 105.651 124.832H109.214C109.191 124.322 109.016 123.922 108.689 123.633C108.361 123.344 107.958 123.199 107.478 123.199ZM112.957 128.189L110.81 122.525H111.815L113.517 127.264L115.229 122.525H116.211L114.065 128.189H112.957ZM119.65 128.326C119.109 128.326 118.63 128.204 118.211 127.961C117.792 127.71 117.461 127.363 117.217 126.922C116.981 126.48 116.863 125.959 116.863 125.357C116.863 124.764 116.981 124.246 117.217 123.804C117.453 123.355 117.781 123.009 118.199 122.765C118.626 122.514 119.117 122.388 119.672 122.388C120.221 122.388 120.693 122.514 121.088 122.765C121.492 123.009 121.8 123.332 122.013 123.736C122.227 124.139 122.333 124.573 122.333 125.038C122.333 125.121 122.329 125.205 122.322 125.289C122.322 125.373 122.322 125.468 122.322 125.574H117.811C117.834 126.008 117.933 126.37 118.108 126.659C118.291 126.941 118.515 127.154 118.782 127.299C119.056 127.443 119.345 127.515 119.65 127.515C120.046 127.515 120.377 127.424 120.643 127.241C120.91 127.059 121.104 126.811 121.225 126.499H122.173C122.021 127.024 121.728 127.462 121.294 127.812C120.868 128.155 120.32 128.326 119.65 128.326ZM119.65 123.199C119.193 123.199 118.786 123.34 118.428 123.622C118.078 123.896 117.876 124.299 117.823 124.832H121.385C121.362 124.322 121.187 123.922 120.86 123.633C120.533 123.344 120.129 123.199 119.65 123.199ZM123.719 128.189V119.968H124.678V128.189H123.719ZM128.945 128.326C128.412 128.326 127.932 128.204 127.506 127.961C127.08 127.717 126.741 127.375 126.49 126.933C126.246 126.484 126.124 125.959 126.124 125.357C126.124 124.756 126.25 124.234 126.501 123.793C126.752 123.344 127.091 122.997 127.517 122.754C127.951 122.51 128.435 122.388 128.968 122.388C129.501 122.388 129.98 122.51 130.406 122.754C130.833 122.997 131.168 123.344 131.411 123.793C131.663 124.234 131.788 124.756 131.788 125.357C131.788 125.959 131.663 126.484 131.411 126.933C131.16 127.375 130.818 127.717 130.384 127.961C129.957 128.204 129.478 128.326 128.945 128.326ZM128.945 127.504C129.272 127.504 129.577 127.424 129.858 127.264C130.14 127.104 130.368 126.865 130.543 126.545C130.719 126.225 130.806 125.829 130.806 125.357C130.806 124.885 130.719 124.489 130.543 124.17C130.376 123.85 130.151 123.61 129.87 123.45C129.588 123.29 129.287 123.211 128.968 123.211C128.64 123.211 128.336 123.29 128.054 123.45C127.772 123.61 127.544 123.85 127.369 124.17C127.194 124.489 127.106 124.885 127.106 125.357C127.106 125.829 127.194 126.225 127.369 126.545C127.544 126.865 127.769 127.104 128.043 127.264C128.324 127.424 128.625 127.504 128.945 127.504ZM133.236 130.701V122.525H134.104L134.195 123.462C134.378 123.188 134.637 122.94 134.972 122.72C135.314 122.499 135.748 122.388 136.273 122.388C136.837 122.388 137.328 122.518 137.746 122.777C138.165 123.035 138.489 123.389 138.717 123.839C138.953 124.288 139.071 124.798 139.071 125.369C139.071 125.94 138.953 126.45 138.717 126.899C138.489 127.34 138.161 127.691 137.735 127.949C137.316 128.201 136.825 128.326 136.262 128.326C135.798 128.326 135.383 128.231 135.017 128.041C134.66 127.85 134.386 127.584 134.195 127.241V130.701H133.236ZM136.159 127.493C136.54 127.493 136.875 127.405 137.164 127.23C137.453 127.047 137.682 126.796 137.849 126.476C138.017 126.157 138.1 125.784 138.1 125.357C138.1 124.931 138.017 124.558 137.849 124.238C137.682 123.919 137.453 123.671 137.164 123.496C136.875 123.313 136.54 123.222 136.159 123.222C135.779 123.222 135.444 123.313 135.154 123.496C134.865 123.671 134.637 123.919 134.469 124.238C134.302 124.558 134.218 124.931 134.218 125.357C134.218 125.784 134.302 126.157 134.469 126.476C134.637 126.796 134.865 127.047 135.154 127.23C135.444 127.405 135.779 127.493 136.159 127.493ZM140.52 128.189V122.525H141.388L141.457 123.348C141.64 123.043 141.883 122.807 142.188 122.64C142.492 122.472 142.835 122.388 143.215 122.388C143.665 122.388 144.049 122.48 144.369 122.662C144.696 122.845 144.947 123.123 145.122 123.496C145.32 123.153 145.59 122.883 145.933 122.685C146.283 122.487 146.66 122.388 147.064 122.388C147.741 122.388 148.282 122.594 148.685 123.005C149.088 123.408 149.29 124.033 149.29 124.878V128.189H148.342V124.98C148.342 124.394 148.224 123.953 147.988 123.656C147.752 123.359 147.414 123.211 146.972 123.211C146.515 123.211 146.135 123.389 145.83 123.747C145.533 124.097 145.385 124.6 145.385 125.255V128.189H144.426V124.98C144.426 124.394 144.308 123.953 144.072 123.656C143.836 123.359 143.497 123.211 143.055 123.211C142.606 123.211 142.23 123.389 141.925 123.747C141.628 124.097 141.48 124.6 141.48 125.255V128.189H140.52ZM153.396 128.326C152.855 128.326 152.376 128.204 151.957 127.961C151.538 127.71 151.207 127.363 150.963 126.922C150.727 126.48 150.609 125.959 150.609 125.357C150.609 124.764 150.727 124.246 150.963 123.804C151.199 123.355 151.527 123.009 151.945 122.765C152.372 122.514 152.863 122.388 153.419 122.388C153.967 122.388 154.439 122.514 154.834 122.765C155.238 123.009 155.546 123.332 155.759 123.736C155.973 124.139 156.079 124.573 156.079 125.038C156.079 125.121 156.075 125.205 156.068 125.289C156.068 125.373 156.068 125.468 156.068 125.574H151.557C151.58 126.008 151.679 126.37 151.854 126.659C152.037 126.941 152.261 127.154 152.528 127.299C152.802 127.443 153.091 127.515 153.396 127.515C153.792 127.515 154.123 127.424 154.389 127.241C154.656 127.059 154.85 126.811 154.971 126.499H155.919C155.767 127.024 155.474 127.462 155.04 127.812C154.614 128.155 154.066 128.326 153.396 128.326ZM153.396 123.199C152.939 123.199 152.532 123.34 152.174 123.622C151.824 123.896 151.622 124.299 151.569 124.832H155.131C155.109 124.322 154.933 123.922 154.606 123.633C154.279 123.344 153.875 123.199 153.396 123.199ZM157.465 128.189V122.525H158.332L158.39 123.542C158.572 123.184 158.835 122.902 159.177 122.697C159.52 122.491 159.908 122.388 160.342 122.388C161.012 122.388 161.545 122.594 161.941 123.005C162.344 123.408 162.546 124.033 162.546 124.878V128.189H161.587V124.98C161.587 123.801 161.1 123.211 160.125 123.211C159.638 123.211 159.231 123.389 158.903 123.747C158.584 124.097 158.424 124.6 158.424 125.255V128.189H157.465ZM166.352 128.189C165.834 128.189 165.427 128.064 165.13 127.812C164.833 127.561 164.684 127.108 164.684 126.454V123.336H163.702V122.525H164.684L164.81 121.167H165.644V122.525H167.311V123.336H165.644V126.454C165.644 126.811 165.716 127.055 165.861 127.184C166.005 127.306 166.26 127.367 166.626 127.367H167.219V128.189H166.352Z" fill="#79819A"/>
<rect x="0.895264" y="0.5" width="198.26" height="145.162" stroke="#CFCFCF"/>
</svg>
