<svg width="70" height="74" viewBox="0 0 70 74" fill="none" xmlns="http://www.w3.org/2000/svg">
<path d="M1.59495 70V63.531L0.334605 63.821V62.951L2.0634 62.1925H2.82184V70H1.59495ZM7.53106 70.1338C6.82467 70.1338 6.21495 69.9665 5.70189 69.6319C5.19626 69.2899 4.80589 68.8177 4.53077 68.2154C4.26308 67.6057 4.12924 66.8993 4.12924 66.0963C4.12924 65.2932 4.26308 64.5905 4.53077 63.9883C4.80589 63.3785 5.19626 62.9064 5.70189 62.5718C6.21495 62.2297 6.82467 62.0587 7.53106 62.0587C8.23745 62.0587 8.84346 62.2297 9.34909 62.5718C9.85471 62.9064 10.2414 63.3785 10.5091 63.9883C10.7842 64.5905 10.9217 65.2932 10.9217 66.0963C10.9217 66.8993 10.7842 67.6057 10.5091 68.2154C10.2414 68.8177 9.85471 69.2899 9.34909 69.6319C8.84346 69.9665 8.23745 70.1338 7.53106 70.1338ZM7.53106 69.0743C7.9549 69.0743 8.3304 68.9553 8.65757 68.7173C8.99217 68.4794 9.25242 68.1374 9.43831 67.6912C9.62421 67.2451 9.71715 66.7134 9.71715 66.0963C9.71715 65.4791 9.62421 64.9475 9.43831 64.5013C9.25242 64.0552 8.99217 63.7131 8.65757 63.4752C8.3304 63.2373 7.9549 63.1183 7.53106 63.1183C7.09979 63.1183 6.72057 63.2373 6.3934 63.4752C6.06623 63.7131 5.8097 64.0552 5.62381 64.5013C5.43792 64.9475 5.34497 65.4791 5.34497 66.0963C5.34497 66.7134 5.43792 67.2451 5.62381 67.6912C5.8097 68.1374 6.06623 68.4794 6.3934 68.7173C6.72057 68.9553 7.09979 69.0743 7.53106 69.0743ZM14.927 67.2562V66.2636H17.035V64.2894H18.0611V66.2636H20.1691V67.2562H18.0611V69.2416H17.035V67.2562H14.927ZM24.394 72.4538V64.4679H25.4536L25.5763 65.3267C25.7548 65.0664 26.0002 64.8359 26.3125 64.6352C26.6247 64.4344 27.0263 64.334 27.517 64.334C28.0524 64.334 28.5246 64.4604 28.9335 64.7132C29.3425 64.966 29.6622 65.3118 29.8927 65.7505C30.1307 66.1892 30.2496 66.6874 30.2496 67.2451C30.2496 67.8028 30.1307 68.3009 29.8927 68.7397C29.6622 69.1709 29.3425 69.513 28.9335 69.7658C28.5246 70.0112 28.0487 70.1338 27.5059 70.1338C27.0746 70.1338 26.6917 70.0483 26.3571 69.8773C26.0299 69.7063 25.7696 69.4646 25.5763 69.1523V72.4538H24.394ZM27.3051 69.1077C27.8107 69.1077 28.2271 68.9367 28.5543 68.5947C28.8815 68.2452 29.0451 67.7916 29.0451 67.2339C29.0451 66.8696 28.9707 66.5461 28.822 66.2636C28.6733 65.981 28.4688 65.7617 28.2085 65.6055C27.9483 65.4419 27.6472 65.3601 27.3051 65.3601C26.7995 65.3601 26.3831 65.5349 26.0559 65.8844C25.7362 66.2338 25.5763 66.6837 25.5763 67.2339C25.5763 67.7916 25.7362 68.2452 26.0559 68.5947C26.3831 68.9367 26.7995 69.1077 27.3051 69.1077ZM31.5284 70V64.4679H32.588L32.6883 65.5163C32.8817 65.1519 33.1494 64.8657 33.4914 64.6575C33.8409 64.4418 34.261 64.334 34.7517 64.334V65.5721H34.4283C34.1011 65.5721 33.8074 65.6278 33.5472 65.7394C33.2943 65.8435 33.0899 66.0256 32.9337 66.2859C32.785 66.5387 32.7106 66.8919 32.7106 67.3455V70H31.5284ZM38.2005 70.1338C37.6726 70.1338 37.1967 70.0149 36.7729 69.7769C36.3565 69.5316 36.0256 69.1932 35.7802 68.762C35.5348 68.3233 35.4122 67.8139 35.4122 67.2339C35.4122 66.6539 35.5348 66.1483 35.7802 65.717C36.033 65.2783 36.3714 64.94 36.7952 64.7021C37.219 64.4567 37.6912 64.334 38.2117 64.334C38.7396 64.334 39.2118 64.4567 39.6282 64.7021C40.052 64.94 40.3866 65.2783 40.632 65.717C40.8848 66.1483 41.0112 66.6539 41.0112 67.2339C41.0112 67.8139 40.8848 68.3233 40.632 68.762C40.3866 69.1932 40.052 69.5316 39.6282 69.7769C39.2043 70.0149 38.7285 70.1338 38.2005 70.1338ZM38.2005 69.1189C38.4831 69.1189 38.7433 69.0482 38.9813 68.907C39.2267 68.7657 39.4237 68.5575 39.5724 68.2824C39.7211 67.9998 39.7955 67.6503 39.7955 67.2339C39.7955 66.8175 39.7211 66.4718 39.5724 66.1967C39.4311 65.9141 39.2378 65.7022 38.9924 65.5609C38.7545 65.4196 38.4942 65.349 38.2117 65.349C37.9291 65.349 37.6652 65.4196 37.4198 65.5609C37.1818 65.7022 36.9885 65.9141 36.8398 66.1967C36.6911 66.4718 36.6167 66.8175 36.6167 67.2339C36.6167 67.6503 36.6911 67.9998 36.8398 68.2824C36.9885 68.5575 37.1818 68.7657 37.4198 68.907C37.6577 69.0482 37.918 69.1189 38.2005 69.1189ZM42.9924 63.4194C42.7694 63.4194 42.5835 63.3525 42.4348 63.2187C42.2935 63.0774 42.2229 62.9026 42.2229 62.6944C42.2229 62.4862 42.2935 62.3152 42.4348 62.1814C42.5835 62.0401 42.7694 61.9695 42.9924 61.9695C43.2155 61.9695 43.3977 62.0401 43.539 62.1814C43.6877 62.3152 43.762 62.4862 43.762 62.6944C43.762 62.9026 43.6877 63.0774 43.539 63.2187C43.3977 63.3525 43.2155 63.4194 42.9924 63.4194ZM41.2302 72.4538V71.45H41.6652C41.9254 71.45 42.1113 71.3942 42.2229 71.2827C42.3344 71.1786 42.3902 71.0001 42.3902 70.7473V64.4679H43.5724V70.7584C43.5724 71.3607 43.42 71.792 43.1151 72.0522C42.8103 72.3199 42.3864 72.4538 41.8436 72.4538H41.2302ZM47.7202 70.1338C47.1774 70.1338 46.6941 70.0149 46.2703 69.7769C45.8539 69.5316 45.5267 69.1932 45.2888 68.762C45.0508 68.3307 44.9319 67.8288 44.9319 67.2562C44.9319 66.6763 45.0471 66.1669 45.2776 65.7282C45.5156 65.2895 45.8427 64.9475 46.2591 64.7021C46.683 64.4567 47.1737 64.334 47.7314 64.334C48.2742 64.334 48.7464 64.4567 49.1479 64.7021C49.5494 64.94 49.8617 65.2598 50.0848 65.6613C50.3078 66.0628 50.4194 66.5052 50.4194 66.9886C50.4194 67.0629 50.4157 67.1447 50.4082 67.2339C50.4082 67.3157 50.4045 67.4087 50.3971 67.5128H46.0918C46.129 68.0481 46.3037 68.4571 46.616 68.7397C46.9358 69.0148 47.3038 69.1523 47.7202 69.1523C48.0548 69.1523 48.3337 69.078 48.5567 68.9293C48.7873 68.7731 48.9583 68.5649 49.0698 68.3047H50.2521C50.1034 68.8252 49.8059 69.2602 49.3598 69.6096C48.9211 69.9591 48.3746 70.1338 47.7202 70.1338ZM47.7202 65.3044C47.3261 65.3044 46.9767 65.4233 46.6718 65.6613C46.3669 65.8918 46.181 66.2413 46.1141 66.7097H49.2371C49.2148 66.2784 49.0624 65.9364 48.7798 65.6836C48.4973 65.4308 48.1441 65.3044 47.7202 65.3044ZM54.2672 70.1338C53.7244 70.1338 53.2373 70.0112 52.8061 69.7658C52.3822 69.5204 52.0476 69.1821 51.8022 68.7508C51.5643 68.3121 51.4453 67.8065 51.4453 67.2339C51.4453 66.6614 51.5643 66.1595 51.8022 65.7282C52.0476 65.2895 52.3822 64.9475 52.8061 64.7021C53.2373 64.4567 53.7244 64.334 54.2672 64.334C54.9513 64.334 55.5238 64.5125 55.9848 64.8694C56.4533 65.2263 56.7544 65.7096 56.8882 66.3193H55.6502C55.5758 66.0145 55.4123 65.7765 55.1595 65.6055C54.9066 65.4345 54.6092 65.349 54.2672 65.349C53.9772 65.349 53.7095 65.4233 53.4641 65.5721C53.2187 65.7133 53.0217 65.9252 52.873 66.2078C52.7243 66.4829 52.6499 66.825 52.6499 67.2339C52.6499 67.6429 52.7243 67.9886 52.873 68.2712C53.0217 68.5463 53.2187 68.7582 53.4641 68.907C53.7095 69.0557 53.9772 69.13 54.2672 69.13C54.6092 69.13 54.9066 69.0445 55.1595 68.8735C55.4123 68.7025 55.5758 68.4608 55.6502 68.1485H56.8882C56.7618 68.7434 56.4644 69.223 55.996 69.5873C55.5275 69.9517 54.9513 70.1338 54.2672 70.1338ZM60.3815 70C59.8387 70 59.4074 69.8699 59.0877 69.6096C58.7679 69.3419 58.6081 68.8698 58.6081 68.1931V65.4605H57.66V64.4679H58.6081L58.7531 63.0625H59.7903V64.4679H61.3518V65.4605H59.7903V68.1931C59.7903 68.498 59.8535 68.7099 59.9799 68.8289C60.1138 68.9404 60.3406 68.9962 60.6603 68.9962H61.2961V70H60.3815ZM64.7793 70.1338C64.0803 70.1338 63.5041 69.9628 63.0505 69.6208C62.5969 69.2787 62.3367 68.8252 62.2697 68.2601H63.4632C63.5226 68.5129 63.6639 68.7322 63.887 68.9181C64.1101 69.0966 64.4038 69.1858 64.7681 69.1858C65.125 69.1858 65.3853 69.1114 65.5489 68.9627C65.7124 68.814 65.7942 68.643 65.7942 68.4497C65.7942 68.1671 65.679 67.9775 65.4485 67.8808C65.2254 67.7767 64.9131 67.6838 64.5116 67.602C64.1993 67.5351 63.887 67.4458 63.5747 67.3343C63.2698 67.2228 63.0133 67.0666 62.8051 66.8659C62.6043 66.6577 62.504 66.3788 62.504 66.0293C62.504 65.546 62.6898 65.1445 63.0616 64.8248C63.4334 64.4976 63.9539 64.334 64.6231 64.334C65.2403 64.334 65.7385 64.4827 66.1177 64.7802C66.5043 65.0776 66.7311 65.4977 66.7981 66.0405H65.6604C65.6232 65.8026 65.5117 65.6167 65.3258 65.4828C65.1473 65.349 64.9057 65.2821 64.6008 65.2821C64.3034 65.2821 64.0729 65.3453 63.9093 65.4717C63.7457 65.5906 63.6639 65.7468 63.6639 65.9401C63.6639 66.1334 63.7755 66.2859 63.9985 66.3974C64.229 66.5089 64.5302 66.6093 64.902 66.6986C65.2737 66.7804 65.6158 66.877 65.9281 66.9886C66.2478 67.0927 66.5043 67.2488 66.6977 67.457C66.891 67.6652 66.9877 67.9701 66.9877 68.3716C66.9951 68.8772 66.7981 69.2973 66.3965 69.6319C66.0024 69.9665 65.4634 70.1338 64.7793 70.1338Z" fill="#A39E9E"/>
<path d="M5.03123 51.1576C4.12044 51.1576 3.33226 50.9606 2.66668 50.5665C2.00986 50.1637 1.50192 49.6075 1.14286 48.8982C0.783803 48.1801 0.604273 47.3525 0.604273 46.4154C0.604273 45.4696 0.783803 44.642 1.14286 43.9326C1.50192 43.2145 2.00986 42.654 2.66668 42.2512C3.33226 41.8483 4.12044 41.6469 5.03123 41.6469C6.10841 41.6469 6.98855 41.9096 7.67164 42.4351C8.35473 42.9605 8.78823 43.6962 8.97214 44.642H7.42205C7.29944 44.1078 7.03671 43.683 6.63386 43.3678C6.23102 43.0525 5.69242 42.8949 5.01809 42.8949C4.09855 42.8949 3.37167 43.2101 2.83745 43.8407C2.30324 44.4625 2.03614 45.3207 2.03614 46.4154C2.03614 47.5013 2.30324 48.3552 2.83745 48.977C3.37167 49.5988 4.09855 49.9097 5.01809 49.9097C5.69242 49.9097 6.23102 49.7608 6.63386 49.463C7.03671 49.1653 7.29944 48.7581 7.42205 48.2414H8.97214C8.78823 49.1522 8.35473 49.8659 7.67164 50.3826C6.98855 50.8993 6.10841 51.1576 5.03123 51.1576ZM13.4978 51.1576C12.876 51.1576 12.3155 51.0175 11.8164 50.7373C11.3259 50.4483 10.9362 50.0498 10.6472 49.5419C10.3582 49.0252 10.2137 48.4253 10.2137 47.7422C10.2137 47.0591 10.3582 46.4636 10.6472 45.9556C10.945 45.4389 11.3435 45.0405 11.8426 44.7602C12.3418 44.4712 12.8979 44.3267 13.511 44.3267C14.1327 44.3267 14.6888 44.4712 15.1793 44.7602C15.6785 45.0405 16.0725 45.4389 16.3615 45.9556C16.6593 46.4636 16.8082 47.0591 16.8082 47.7422C16.8082 48.4253 16.6593 49.0252 16.3615 49.5419C16.0725 50.0498 15.6785 50.4483 15.1793 50.7373C14.6801 51.0175 14.1196 51.1576 13.4978 51.1576ZM13.4978 49.9622C13.8306 49.9622 14.1371 49.879 14.4174 49.7126C14.7064 49.5462 14.9384 49.301 15.1136 48.977C15.2887 48.6442 15.3763 48.2326 15.3763 47.7422C15.3763 47.2518 15.2887 46.8445 15.1136 46.5205C14.9472 46.1877 14.7195 45.9381 14.4305 45.7717C14.1503 45.6053 13.8437 45.5221 13.511 45.5221C13.1782 45.5221 12.8673 45.6053 12.5783 45.7717C12.298 45.9381 12.0703 46.1877 11.8952 46.5205C11.72 46.8445 11.6325 47.2518 11.6325 47.7422C11.6325 48.2326 11.72 48.6442 11.8952 48.977C12.0703 49.301 12.298 49.5462 12.5783 49.7126C12.8585 49.879 13.165 49.9622 13.4978 49.9622ZM18.314 51V44.4844H19.5489L19.6671 45.4039C19.8773 45.0711 20.1531 44.8084 20.4947 44.6157C20.845 44.4231 21.2478 44.3267 21.7032 44.3267C22.7366 44.3267 23.4547 44.734 23.8576 45.5484C24.094 45.1718 24.4093 44.8741 24.8034 44.6551C25.2063 44.4362 25.6398 44.3267 26.1039 44.3267C26.9184 44.3267 27.5577 44.5719 28.0218 45.0624C28.486 45.5528 28.718 46.284 28.718 47.2561V51H27.3256V47.4006C27.3256 46.1395 26.8439 45.509 25.8806 45.509C25.3902 45.509 24.9873 45.6929 24.672 46.0607C24.3655 46.4285 24.2123 46.954 24.2123 47.6371V51H22.8198V47.4006C22.8198 46.1395 22.3338 45.509 21.3617 45.509C20.88 45.509 20.4815 45.6929 20.1663 46.0607C19.8598 46.4285 19.7065 46.954 19.7065 47.6371V51H18.314ZM30.3472 53.89V44.4844H31.5951L31.7396 45.4959C31.9498 45.1893 32.2388 44.9179 32.6066 44.6814C32.9744 44.445 33.4473 44.3267 34.0253 44.3267C34.6559 44.3267 35.212 44.4756 35.6937 44.7734C36.1753 45.0711 36.5519 45.4783 36.8234 45.995C37.1036 46.5117 37.2437 47.0985 37.2437 47.7553C37.2437 48.4121 37.1036 48.9989 36.8234 49.5156C36.5519 50.0235 36.1753 50.4264 35.6937 50.7241C35.212 51.0131 34.6515 51.1576 34.0122 51.1576C33.5043 51.1576 33.0532 51.0569 32.6592 50.8555C32.2738 50.6541 31.9673 50.3695 31.7396 50.0016V53.89H30.3472ZM33.7757 49.9491C34.3713 49.9491 34.8617 49.7477 35.247 49.3448C35.6323 48.9332 35.825 48.399 35.825 47.7422C35.825 47.3131 35.7374 46.9321 35.5623 46.5993C35.3871 46.2665 35.1463 46.0082 34.8398 45.8243C34.5333 45.6316 34.1786 45.5353 33.7757 45.5353C33.1802 45.5353 32.6898 45.7411 32.3045 46.1527C31.9279 46.5643 31.7396 47.0941 31.7396 47.7422C31.7396 48.399 31.9279 48.9332 32.3045 49.3448C32.6898 49.7477 33.1802 49.9491 33.7757 49.9491ZM38.7498 51V41.5418H40.1423V51H38.7498ZM44.9532 51.1576C44.3139 51.1576 43.7447 51.0175 43.2455 50.7373C42.7551 50.4483 42.3698 50.0498 42.0895 49.5419C41.8093 49.0339 41.6692 48.4428 41.6692 47.7685C41.6692 47.0854 41.8049 46.4855 42.0764 45.9688C42.3566 45.4521 42.742 45.0492 43.2324 44.7602C43.7316 44.4712 44.3096 44.3267 44.9664 44.3267C45.6057 44.3267 46.1618 44.4712 46.6347 44.7602C47.1076 45.0405 47.4754 45.417 47.7382 45.89C48.0009 46.3629 48.1322 46.8839 48.1322 47.4532C48.1322 47.5408 48.1279 47.6371 48.1191 47.7422C48.1191 47.8385 48.1147 47.948 48.106 48.0706H43.0353C43.0791 48.7011 43.2849 49.1828 43.6527 49.5156C44.0293 49.8396 44.4628 50.0016 44.9532 50.0016C45.3473 50.0016 45.6757 49.9141 45.9385 49.7389C46.21 49.555 46.4114 49.3098 46.5427 49.0033H47.9352C47.7601 49.6163 47.4097 50.1286 46.8843 50.5402C46.3676 50.9518 45.7239 51.1576 44.9532 51.1576ZM44.9532 45.4696C44.4891 45.4696 44.0775 45.6097 43.7184 45.89C43.3594 46.1614 43.1404 46.573 43.0616 47.1248H46.7398C46.7135 46.6168 46.534 46.214 46.2012 45.9162C45.8684 45.6185 45.4524 45.4696 44.9532 45.4696ZM52.1426 51C51.5033 51 50.9954 50.8467 50.6188 50.5402C50.2422 50.225 50.054 49.6688 50.054 48.8719V45.6535H48.9374V44.4844H50.054L50.2247 42.8292H51.4464V44.4844H53.2855V45.6535H51.4464V48.8719C51.4464 49.231 51.5208 49.4806 51.6697 49.6207C51.8274 49.752 52.0945 49.8177 52.471 49.8177H53.2198V51H52.1426ZM57.6021 51.1576C56.9628 51.1576 56.3936 51.0175 55.8944 50.7373C55.404 50.4483 55.0186 50.0498 54.7384 49.5419C54.4582 49.0339 54.318 48.4428 54.318 47.7685C54.318 47.0854 54.4538 46.4855 54.7253 45.9688C55.0055 45.4521 55.3908 45.0492 55.8813 44.7602C56.3804 44.4712 56.9584 44.3267 57.6153 44.3267C58.2546 44.3267 58.8107 44.4712 59.2836 44.7602C59.7565 45.0405 60.1243 45.417 60.387 45.89C60.6498 46.3629 60.7811 46.8839 60.7811 47.4532C60.7811 47.5408 60.7768 47.6371 60.768 47.7422C60.768 47.8385 60.7636 47.948 60.7549 48.0706H55.6842C55.728 48.7011 55.9338 49.1828 56.3016 49.5156C56.6782 49.8396 57.1117 50.0016 57.6021 50.0016C57.9962 50.0016 58.3246 49.9141 58.5874 49.7389C58.8588 49.555 59.0603 49.3098 59.1916 49.0033H60.5841C60.4089 49.6163 60.0586 50.1286 59.5332 50.5402C59.0165 50.9518 58.3728 51.1576 57.6021 51.1576ZM57.6021 45.4696C57.138 45.4696 56.7264 45.6097 56.3673 45.89C56.0083 46.1614 55.7893 46.573 55.7105 47.1248H59.3887C59.3624 46.6168 59.1829 46.214 58.8501 45.9162C58.5173 45.6185 58.1013 45.4696 57.6021 45.4696ZM65.1947 51.1576C64.5642 51.1576 64.0081 51.0088 63.5264 50.711C63.0448 50.4132 62.6682 50.006 62.3967 49.4893C62.1252 48.9726 61.9895 48.3859 61.9895 47.729C61.9895 47.0722 62.1252 46.4898 62.3967 45.9819C62.6682 45.4652 63.0448 45.0624 63.5264 44.7734C64.0168 44.4756 64.5773 44.3267 65.2079 44.3267C65.7246 44.3267 66.1756 44.4274 66.5609 44.6289C66.955 44.8303 67.2615 45.1149 67.4805 45.4827V41.5418H68.8729V51H67.625L67.4805 49.9885C67.2703 50.295 66.9813 50.5665 66.6135 50.803C66.2457 51.0394 65.7727 51.1576 65.1947 51.1576ZM65.4443 49.9491C66.0398 49.9491 66.5259 49.7433 66.9025 49.3317C67.2878 48.9201 67.4805 48.3902 67.4805 47.7422C67.4805 47.0854 67.2878 46.5555 66.9025 46.1527C66.5259 45.7411 66.0398 45.5353 65.4443 45.5353C64.8488 45.5353 64.3584 45.7411 63.9731 46.1527C63.5877 46.5555 63.3951 47.0854 63.3951 47.7422C63.3951 48.1713 63.4826 48.5523 63.6578 48.885C63.8329 49.2178 64.0738 49.4806 64.3803 49.6732C64.6956 49.8571 65.0502 49.9491 65.4443 49.9491Z" fill="#545353"/>
<path d="M30.8312 7.25725C30.0143 8.28659 29.5674 9.56086 29.5625 10.875C29.5625 11.1154 29.467 11.3459 29.2971 11.5158C29.1271 11.6858 28.8966 11.7812 28.6562 11.7812C25.372 11.7812 24.125 14.0723 24.125 15.4062C24.125 16.1802 24.3207 17.0701 24.9207 17.7552C25.4989 18.415 26.5791 19.0312 28.6562 19.0312H29.5625C29.5625 19.6493 29.6187 20.2565 29.7256 20.8438H28.6562C26.2021 20.8438 24.5636 20.1006 23.5559 18.9479C22.5699 17.8205 22.3125 16.4448 22.3125 15.4062C22.3125 13.2711 24.0616 10.3947 27.8007 10.0123C27.9639 8.58388 28.5282 7.23092 29.4284 6.10994C30.6192 4.65269 32.4625 3.625 35 3.625C36.5406 3.625 38.3368 4.1325 39.7669 5.30338C40.9233 6.2495 41.8114 7.61069 42.1249 9.40325C41.493 9.23361 40.8458 9.12676 40.1928 9.08425C39.9218 8.14891 39.3716 7.31862 38.6159 6.70444C37.5868 5.8885 36.3133 5.44228 35 5.4375C33.0063 5.4375 31.6777 6.22231 30.8312 7.25725ZM47.6875 19.0312C47.6875 20.1023 47.4765 21.163 47.0666 22.1525C46.6568 23.1421 46.056 24.0412 45.2986 24.7986C44.5412 25.556 43.6421 26.1568 42.6525 26.5666C41.663 26.9765 40.6023 27.1875 39.5312 27.1875C38.4602 27.1875 37.3996 26.9765 36.41 26.5666C35.4204 26.1568 34.5213 25.556 33.7639 24.7986C33.0065 24.0412 32.4057 23.1421 31.9959 22.1525C31.586 21.163 31.375 20.1023 31.375 19.0312C31.375 16.8681 32.2343 14.7935 33.7639 13.2639C35.2935 11.7343 37.3681 10.875 39.5312 10.875C41.6944 10.875 43.769 11.7343 45.2986 13.2639C46.8282 14.7935 47.6875 16.8681 47.6875 19.0312ZM43.7979 15.6709C43.7137 15.5865 43.6137 15.5195 43.5036 15.4738C43.3935 15.4281 43.2755 15.4046 43.1562 15.4046C43.037 15.4046 42.919 15.4281 42.8089 15.4738C42.6988 15.5195 42.5988 15.5865 42.5146 15.6709L37.7188 20.4686L36.5479 19.2959C36.4636 19.2116 36.3636 19.1448 36.2535 19.0992C36.1434 19.0536 36.0254 19.0301 35.9062 19.0301C35.7871 19.0301 35.6691 19.0536 35.559 19.0992C35.4489 19.1448 35.3489 19.2116 35.2646 19.2959C35.1804 19.3801 35.1135 19.4802 35.0679 19.5903C35.0223 19.7003 34.9989 19.8183 34.9989 19.9375C34.9989 20.0567 35.0223 20.1747 35.0679 20.2847C35.1135 20.3948 35.1804 20.4949 35.2646 20.5791L37.0771 22.3916C37.1613 22.476 37.2613 22.543 37.3714 22.5887C37.4815 22.6344 37.5995 22.6579 37.7188 22.6579C37.838 22.6579 37.956 22.6344 38.0661 22.5887C38.1762 22.543 38.2762 22.476 38.3604 22.3916L43.7979 16.9541C43.8823 16.8699 43.9492 16.7699 43.9949 16.6598C44.0406 16.5497 44.0641 16.4317 44.0641 16.3125C44.0641 16.1933 44.0406 16.0753 43.9949 15.9652C43.9492 15.8551 43.8823 15.7551 43.7979 15.6709Z" fill="black"/>
</svg>
