<svg width="11" height="13" viewBox="0 0 11 13" fill="none" xmlns="http://www.w3.org/2000/svg">
<path d="M1.55251 3.19648L1.92791 4.79542L1.55251 6.38741L2.94984 7.24945L3.80493 8.64678L5.40387 8.27138L7.00281 8.64678L7.85789 7.24945L9.25523 6.38741L8.87983 4.79542L9.25523 3.19648L7.86485 2.33444L7.00281 0.937107L5.40387 1.31946L3.81188 0.944059L2.94289 2.33444L1.55251 3.19648ZM5.41082 7.60399C4.67332 7.60399 3.96602 7.31102 3.44452 6.78953C2.92303 6.26803 2.63006 5.56073 2.63006 4.82323C2.63006 4.08572 2.92303 3.37842 3.44452 2.85693C3.96602 2.33543 4.67332 2.04246 5.41082 2.04246C6.94024 2.04246 8.18463 3.28685 8.18463 4.81628C8.18463 6.3596 6.94024 7.60399 5.41082 7.60399ZM5.39692 6.9088C4.2429 6.9088 3.31829 5.97725 3.31829 4.82323C3.31829 3.67616 4.2429 2.73765 5.39692 2.73765C6.55093 2.73765 7.48944 3.67616 7.48944 4.82323C7.48944 5.97725 6.55093 6.9088 5.39692 6.9088ZM8.06645 7.67351L7.17661 9.23074L5.73061 8.904L7.48944 12.957L8.46271 11.4275H10.2007L8.06645 7.67351ZM2.71348 7.72218L3.58247 9.28636L5.06323 8.93181L3.31829 12.957L2.34503 11.4275H0.607048L2.71348 7.72218Z" fill="black"/>
</svg>
