<svg width="70" height="73" viewBox="0 0 70 73" fill="none" xmlns="http://www.w3.org/2000/svg">
<path d="M0.932682 49V39.8045H6.77836V40.9343H2.32514V43.798H6.38427V44.9015H2.32514V47.8703H6.77836V49H0.932682ZM7.75425 49L10.0663 45.7422L7.75425 42.4844H9.23866L10.9858 44.9803L12.7198 42.4844H14.2173L11.9053 45.7422L14.2173 49H12.7198L10.9858 46.5041L9.23866 49H7.75425ZM15.3507 51.89V42.4844H16.5986L16.7431 43.4959C16.9533 43.1893 17.2423 42.9179 17.6101 42.6814C17.9779 42.445 18.4508 42.3267 19.0288 42.3267C19.6594 42.3267 20.2155 42.4756 20.6972 42.7734C21.1788 43.0711 21.5554 43.4783 21.8269 43.995C22.1071 44.5117 22.2473 45.0985 22.2473 45.7553C22.2473 46.4121 22.1071 46.9989 21.8269 47.5156C21.5554 48.0235 21.1788 48.4264 20.6972 48.7241C20.2155 49.0131 19.655 49.1576 19.0157 49.1576C18.5078 49.1576 18.0568 49.0569 17.6627 48.8555C17.2773 48.6541 16.9708 48.3695 16.7431 48.0016V51.89H15.3507ZM18.7793 47.9491C19.3748 47.9491 19.8652 47.7477 20.2505 47.3448C20.6359 46.9332 20.8285 46.399 20.8285 45.7422C20.8285 45.3131 20.7409 44.9321 20.5658 44.5993C20.3906 44.2665 20.1498 44.0082 19.8433 43.8243C19.5368 43.6316 19.1821 43.5353 18.7793 43.5353C18.1837 43.5353 17.6933 43.7411 17.308 44.1527C16.9314 44.5643 16.7431 45.0941 16.7431 45.7422C16.7431 46.399 16.9314 46.9332 17.308 47.3448C17.6933 47.7477 18.1837 47.9491 18.7793 47.9491ZM26.801 49.1576C26.1616 49.1576 25.5924 49.0175 25.0932 48.7373C24.6028 48.4483 24.2175 48.0498 23.9372 47.5419C23.657 47.0339 23.5169 46.4428 23.5169 45.7685C23.5169 45.0854 23.6526 44.4855 23.9241 43.9688C24.2043 43.4521 24.5897 43.0492 25.0801 42.7602C25.5793 42.4712 26.1573 42.3267 26.8141 42.3267C27.4534 42.3267 28.0095 42.4712 28.4824 42.7602C28.9553 43.0405 29.3231 43.417 29.5859 43.89C29.8486 44.3629 29.98 44.8839 29.98 45.4532C29.98 45.5408 29.9756 45.6371 29.9668 45.7422C29.9668 45.8385 29.9624 45.948 29.9537 46.0706H24.883C24.9268 46.7011 25.1326 47.1828 25.5005 47.5156C25.877 47.8396 26.3105 48.0016 26.801 48.0016C27.195 48.0016 27.5235 47.9141 27.7862 47.7389C28.0577 47.555 28.2591 47.3098 28.3905 47.0033H29.7829C29.6078 47.6163 29.2575 48.1286 28.732 48.5402C28.2153 48.9518 27.5716 49.1576 26.801 49.1576ZM26.801 43.4696C26.3368 43.4696 25.9252 43.6097 25.5661 43.89C25.2071 44.1614 24.9881 44.573 24.9093 45.1248H28.5875C28.5612 44.6168 28.3817 44.214 28.0489 43.9162C27.7161 43.6185 27.3001 43.4696 26.801 43.4696ZM31.4247 49V42.4844H32.6727L32.7909 43.7192C33.0186 43.2901 33.3339 42.9529 33.7367 42.7077C34.1484 42.4537 34.6432 42.3267 35.2212 42.3267V43.7849H34.8402C34.4549 43.7849 34.1089 43.8505 33.8024 43.9819C33.5047 44.1045 33.2638 44.3191 33.0799 44.6256C32.9048 44.9233 32.8172 45.3393 32.8172 45.8735V49H31.4247ZM37.2032 41.2495C36.9405 41.2495 36.7215 41.1707 36.5464 41.0131C36.38 40.8467 36.2968 40.6409 36.2968 40.3957C36.2968 40.1505 36.38 39.949 36.5464 39.7914C36.7215 39.625 36.9405 39.5418 37.2032 39.5418C37.4659 39.5418 37.6805 39.625 37.8469 39.7914C38.022 39.949 38.1096 40.1505 38.1096 40.3957C38.1096 40.6409 38.022 40.8467 37.8469 41.0131C37.6805 41.1707 37.4659 41.2495 37.2032 41.2495ZM36.507 49V42.4844H37.8994V49H36.507ZM42.7852 49.1576C42.1459 49.1576 41.5767 49.0175 41.0775 48.7373C40.5871 48.4483 40.2018 48.0498 39.9215 47.5419C39.6413 47.0339 39.5011 46.4428 39.5011 45.7685C39.5011 45.0854 39.6369 44.4855 39.9084 43.9688C40.1886 43.4521 40.5739 43.0492 41.0644 42.7602C41.5636 42.4712 42.1416 42.3267 42.7984 42.3267C43.4377 42.3267 43.9938 42.4712 44.4667 42.7602C44.9396 43.0405 45.3074 43.417 45.5701 43.89C45.8329 44.3629 45.9642 44.8839 45.9642 45.4532C45.9642 45.5408 45.9599 45.6371 45.9511 45.7422C45.9511 45.8385 45.9467 45.948 45.938 46.0706H40.8673C40.9111 46.7011 41.1169 47.1828 41.4847 47.5156C41.8613 47.8396 42.2948 48.0016 42.7852 48.0016C43.1793 48.0016 43.5077 47.9141 43.7705 47.7389C44.0419 47.555 44.2434 47.3098 44.3747 47.0033H45.7672C45.592 47.6163 45.2417 48.1286 44.7163 48.5402C44.1996 48.9518 43.5559 49.1576 42.7852 49.1576ZM42.7852 43.4696C42.3211 43.4696 41.9095 43.6097 41.5504 43.89C41.1914 44.1614 40.9724 44.573 40.8936 45.1248H44.5718C44.5455 44.6168 44.366 44.214 44.0332 43.9162C43.7004 43.6185 43.2844 43.4696 42.7852 43.4696ZM47.409 49V42.4844H48.6439L48.7489 43.6272C48.9504 43.2244 49.2437 42.9091 49.6291 42.6814C50.0232 42.445 50.4742 42.3267 50.9821 42.3267C51.7703 42.3267 52.3877 42.5719 52.8344 43.0624C53.2897 43.5528 53.5174 44.284 53.5174 45.2561V49H52.1381V45.4006C52.1381 44.1395 51.6214 43.509 50.588 43.509C50.0713 43.509 49.6422 43.6929 49.3007 44.0607C48.9679 44.4285 48.8015 44.954 48.8015 45.6371V49H47.409ZM58.2445 49.1576C57.6052 49.1576 57.0316 49.0131 56.5236 48.7241C56.0244 48.4351 55.6303 48.0367 55.3413 47.5287C55.0611 47.012 54.921 46.4165 54.921 45.7422C54.921 45.0678 55.0611 44.4767 55.3413 43.9688C55.6303 43.4521 56.0244 43.0492 56.5236 42.7602C57.0316 42.4712 57.6052 42.3267 58.2445 42.3267C59.0502 42.3267 59.7245 42.5369 60.2675 42.9573C60.8192 43.3776 61.1739 43.9469 61.3315 44.665H59.8734C59.7858 44.3059 59.5931 44.0257 59.2954 43.8243C58.9976 43.6228 58.6473 43.5221 58.2445 43.5221C57.9029 43.5221 57.5877 43.6097 57.2987 43.7849C57.0097 43.9513 56.7776 44.2008 56.6024 44.5336C56.4273 44.8577 56.3397 45.2605 56.3397 45.7422C56.3397 46.2238 56.4273 46.6311 56.6024 46.9639C56.7776 47.2879 57.0097 47.5375 57.2987 47.7126C57.5877 47.8878 57.9029 47.9754 58.2445 47.9754C58.6473 47.9754 58.9976 47.8747 59.2954 47.6732C59.5931 47.4718 59.7858 47.1872 59.8734 46.8194H61.3315C61.1826 47.52 60.8323 48.0848 60.2806 48.514C59.7289 48.9431 59.0502 49.1576 58.2445 49.1576ZM65.8893 49.1576C65.25 49.1576 64.6808 49.0175 64.1816 48.7373C63.6912 48.4483 63.3058 48.0498 63.0256 47.5419C62.7454 47.0339 62.6052 46.4428 62.6052 45.7685C62.6052 45.0854 62.741 44.4855 63.0125 43.9688C63.2927 43.4521 63.678 43.0492 64.1685 42.7602C64.6676 42.4712 65.2456 42.3267 65.9025 42.3267C66.5418 42.3267 67.0979 42.4712 67.5708 42.7602C68.0437 43.0405 68.4115 43.417 68.6742 43.89C68.937 44.3629 69.0683 44.8839 69.0683 45.4532C69.0683 45.5408 69.0639 45.6371 69.0552 45.7422C69.0552 45.8385 69.0508 45.948 69.0421 46.0706H63.9714C64.0152 46.7011 64.221 47.1828 64.5888 47.5156C64.9654 47.8396 65.3989 48.0016 65.8893 48.0016C66.2834 48.0016 66.6118 47.9141 66.8746 47.7389C67.146 47.555 67.3475 47.3098 67.4788 47.0033H68.8713C68.6961 47.6163 68.3458 48.1286 67.8204 48.5402C67.3037 48.9518 66.66 49.1576 65.8893 49.1576ZM65.8893 43.4696C65.4252 43.4696 65.0136 43.6097 64.6545 43.89C64.2954 44.1614 64.0765 44.573 63.9977 45.1248H67.6759C67.6496 44.6168 67.4701 44.214 67.1373 43.9162C66.8045 43.6185 66.3885 43.4696 65.8893 43.4696Z" fill="#545353"/>
<path d="M13.595 69V62.531L12.3346 62.821V61.951L14.0634 61.1925H14.8218V69H13.595ZM19.0956 66.2562V65.2636H21.2036V63.2894H22.2297V65.2636H24.3377V66.2562H22.2297V68.2416H21.2036V66.2562H19.0956ZM29.2095 71.4538L30.5368 68.5427H30.2133L28.0273 63.4679H29.3099L31.0052 67.5612L32.7787 63.4679H34.0278L30.4587 71.4538H29.2095ZM37.0864 69.1338C36.5436 69.1338 36.0603 69.0149 35.6365 68.7769C35.2201 68.5316 34.8929 68.1932 34.655 67.762C34.417 67.3307 34.2981 66.8288 34.2981 66.2562C34.2981 65.6763 34.4133 65.1669 34.6438 64.7282C34.8818 64.2895 35.2089 63.9475 35.6253 63.7021C36.0492 63.4567 36.5399 63.334 37.0976 63.334C37.6404 63.334 38.1126 63.4567 38.5141 63.7021C38.9156 63.94 39.2279 64.2598 39.451 64.6613C39.6741 65.0628 39.7856 65.5052 39.7856 65.9886C39.7856 66.0629 39.7819 66.1447 39.7744 66.2339C39.7744 66.3157 39.7707 66.4087 39.7633 66.5128H35.458C35.4952 67.0481 35.6699 67.4571 35.9822 67.7397C36.302 68.0148 36.67 68.1523 37.0864 68.1523C37.421 68.1523 37.6999 68.078 37.9229 67.9293C38.1535 67.7731 38.3245 67.5649 38.436 67.3047H39.6183C39.4696 67.8252 39.1721 68.2602 38.726 68.6096C38.2873 68.9591 37.7408 69.1338 37.0864 69.1338ZM37.0864 64.3044C36.6923 64.3044 36.3429 64.4233 36.038 64.6613C35.7331 64.8918 35.5472 65.2413 35.4803 65.7097H38.6033C38.581 65.2784 38.4286 64.9364 38.146 64.6836C37.8635 64.4308 37.5103 64.3044 37.0864 64.3044ZM42.8861 69.1338C42.4176 69.1338 42.031 69.0558 41.7261 68.8996C41.4213 68.7435 41.1945 68.539 41.0458 68.2862C40.897 68.0259 40.8227 67.7434 40.8227 67.4385C40.8227 66.9031 41.0309 66.4793 41.4473 66.167C41.8637 65.8547 42.4585 65.6986 43.2318 65.6986H44.6818V65.5982C44.6818 65.1669 44.5628 64.8435 44.3249 64.6278C44.0944 64.4122 43.7932 64.3044 43.4215 64.3044C43.0943 64.3044 42.808 64.3862 42.5626 64.5497C42.3247 64.7059 42.1797 64.9401 42.1277 65.2524H40.9454C40.9826 64.8509 41.1164 64.5089 41.3469 64.2263C41.5848 63.9363 41.8823 63.717 42.2392 63.5682C42.6035 63.4121 43.0013 63.334 43.4326 63.334C44.2059 63.334 44.8045 63.5385 45.2283 63.9475C45.6522 64.349 45.8641 64.8992 45.8641 65.5982V69H44.838L44.7376 68.052C44.5814 68.3568 44.3546 68.6133 44.0572 68.8215C43.7598 69.0297 43.3694 69.1338 42.8861 69.1338ZM43.1203 68.1746C43.44 68.1746 43.7077 68.1003 43.9234 67.9516C44.1464 67.7954 44.3175 67.5909 44.4364 67.3381C44.5628 67.0853 44.6409 66.8065 44.6707 66.5016H43.3545C42.8861 66.5016 42.5515 66.5834 42.3507 66.747C42.1574 66.9106 42.0607 67.1151 42.0607 67.3604C42.0607 67.6132 42.1537 67.814 42.3396 67.9627C42.5329 68.104 42.7931 68.1746 43.1203 68.1746ZM47.2426 69V63.4679H48.3022L48.4025 64.5163C48.5959 64.1519 48.8636 63.8657 49.2056 63.6575C49.5551 63.4418 49.9752 63.334 50.4659 63.334V64.5721H50.1425C49.8153 64.5721 49.5216 64.6278 49.2614 64.7394C49.0086 64.8435 48.8041 65.0256 48.6479 65.2859C48.4992 65.5387 48.4249 65.8919 48.4249 66.3455V69H47.2426ZM53.688 69.1338C52.9891 69.1338 52.4128 68.9628 51.9592 68.6208C51.5056 68.2787 51.2454 67.8252 51.1785 67.2601H52.3719C52.4314 67.5129 52.5727 67.7322 52.7957 67.9181C53.0188 68.0966 53.3125 68.1858 53.6769 68.1858C54.0338 68.1858 54.294 68.1114 54.4576 67.9627C54.6212 67.814 54.703 67.643 54.703 67.4497C54.703 67.1671 54.5877 66.9775 54.3572 66.8808C54.1341 66.7767 53.8219 66.6838 53.4203 66.602C53.108 66.5351 52.7957 66.4458 52.4834 66.3343C52.1786 66.2228 51.922 66.0666 51.7138 65.8659C51.5131 65.6577 51.4127 65.3788 51.4127 65.0293C51.4127 64.546 51.5986 64.1445 51.9704 63.8248C52.3422 63.4976 52.8626 63.334 53.5319 63.334C54.149 63.334 54.6472 63.4827 55.0264 63.7802C55.4131 64.0776 55.6399 64.4977 55.7068 65.0405H54.5691C54.532 64.8026 54.4204 64.6167 54.2345 64.4828C54.0561 64.349 53.8144 64.2821 53.5096 64.2821C53.2121 64.2821 52.9816 64.3453 52.818 64.4717C52.6544 64.5906 52.5727 64.7468 52.5727 64.9401C52.5727 65.1334 52.6842 65.2859 52.9073 65.3974C53.1378 65.5089 53.4389 65.6093 53.8107 65.6986C54.1825 65.7804 54.5245 65.877 54.8368 65.9886C55.1566 66.0927 55.4131 66.2488 55.6064 66.457C55.7997 66.6652 55.8964 66.9701 55.8964 67.3716C55.9038 67.8772 55.7068 68.2973 55.3053 68.6319C54.9112 68.9665 54.3721 69.1338 53.688 69.1338Z" fill="#A39E9E"/>
<path d="M25.9129 7.99801L26.7499 11.563L25.9129 15.1125L29.0284 17.0345L30.9349 20.15L34.4999 19.313L38.0649 20.15L39.9714 17.0345L43.0869 15.1125L42.2499 11.563L43.0869 7.99801L39.9869 6.07601L38.0649 2.96051L34.4999 3.81301L30.9504 2.97601L29.0129 6.07601L25.9129 7.99801ZM34.5154 17.825C32.8711 17.825 31.2941 17.1718 30.1314 16.0091C28.9686 14.8463 28.3154 13.2694 28.3154 11.625C28.3154 9.98067 28.9686 8.40367 30.1314 7.24095C31.2941 6.07822 32.8711 5.42501 34.5154 5.42501C37.9254 5.42501 40.6999 8.19951 40.6999 11.6095C40.6999 15.0505 37.9254 17.825 34.5154 17.825ZM34.4844 16.275C31.9114 16.275 29.8499 14.198 29.8499 11.625C29.8499 9.06751 31.9114 6.97501 34.4844 6.97501C37.0574 6.97501 39.1499 9.06751 39.1499 11.625C39.1499 14.198 37.0574 16.275 34.4844 16.275ZM40.4364 17.98L38.4524 21.452L35.2284 20.7235L39.1499 29.76L41.3199 26.35H45.1949L40.4364 17.98ZM28.5014 18.0885L30.4389 21.576L33.7404 20.7855L29.8499 29.76L27.6799 26.35H23.8049L28.5014 18.0885Z" fill="black"/>
</svg>
