<svg width="53" height="9" viewBox="0 0 53 9" fill="none" xmlns="http://www.w3.org/2000/svg">
<path d="M0.755547 8.08014L0.765862 0.652802H2.18944V5.19173L4.07722 2.50964H5.81026L3.79869 5.29489L5.94437 8.08014H4.11848L2.18944 5.39805V8.08014H0.755547ZM6.45766 8.08014V2.50964H7.69555V3.87131L7.56144 3.69595C7.63365 3.50339 7.72993 3.32802 7.85028 3.16984C7.97063 3.01167 8.11849 2.881 8.29386 2.77785C8.42796 2.69532 8.5741 2.63171 8.73228 2.587C8.89045 2.53886 9.05378 2.50964 9.22228 2.49932C9.39077 2.48557 9.55926 2.489 9.72775 2.50964V3.81974C9.57301 3.7716 9.39249 3.75612 9.18617 3.77332C8.98329 3.78707 8.79933 3.83349 8.63428 3.91258C8.46923 3.98823 8.32996 4.08966 8.21649 4.21689C8.10302 4.34068 8.01705 4.48854 7.9586 4.66047C7.90014 4.82896 7.87091 5.0198 7.87091 5.23299V8.08014H6.45766ZM10.812 1.73596V0.498066H12.215V1.73596H10.812ZM10.812 8.08014V2.50964H12.215V8.08014H10.812ZM15.9379 8.23488C15.2364 8.23488 14.6691 8.0767 14.2358 7.76035C13.806 7.44056 13.5447 6.99011 13.4518 6.40899L14.8857 6.19236C14.9442 6.45369 15.0731 6.65829 15.2725 6.80614C15.4754 6.954 15.7316 7.02793 16.0411 7.02793C16.2955 7.02793 16.4915 6.97979 16.6291 6.88351C16.7666 6.78379 16.8354 6.64625 16.8354 6.47088C16.8354 6.36085 16.8079 6.27316 16.7529 6.20783C16.6978 6.13906 16.574 6.07201 16.3815 6.00667C16.1924 5.94134 15.8966 5.85538 15.4943 5.74878C15.0404 5.63187 14.6777 5.5012 14.406 5.35678C14.1344 5.21236 13.9384 5.04043 13.818 4.841C13.6977 4.63812 13.6375 4.39398 13.6375 4.10858C13.6375 3.75096 13.7286 3.44149 13.9109 3.18016C14.0931 2.91539 14.3493 2.71251 14.6794 2.57153C15.0129 2.42711 15.4049 2.3549 15.8554 2.3549C16.2921 2.3549 16.6789 2.42195 17.0159 2.55606C17.3529 2.69016 17.6245 2.881 17.8308 3.12858C18.0406 3.37616 18.1695 3.66844 18.2177 4.00542L16.7838 4.26331C16.7597 4.057 16.6703 3.89367 16.5156 3.77332C16.3609 3.65296 16.1511 3.58247 15.8863 3.56184C15.6284 3.54465 15.4204 3.57904 15.2622 3.665C15.1075 3.75096 15.0301 3.87475 15.0301 4.03637C15.0301 4.13265 15.0628 4.21345 15.1281 4.27879C15.1969 4.34412 15.3362 4.41117 15.5459 4.47994C15.7591 4.54872 16.0823 4.63812 16.5156 4.74815C16.9385 4.85819 17.2772 4.98713 17.5317 5.13499C17.7896 5.27941 17.977 5.45478 18.0939 5.6611C18.2108 5.86397 18.2693 6.10983 18.2693 6.39867C18.2693 6.96948 18.0629 7.41821 17.6503 7.74488C17.2377 8.07154 16.6669 8.23488 15.9379 8.23488ZM23.1989 8.08014V5.44962C23.1989 5.3224 23.192 5.16078 23.1783 4.96478C23.1645 4.76535 23.1215 4.56591 23.0493 4.36647C22.9771 4.16703 22.8585 4.00026 22.6934 3.86616C22.5318 3.73205 22.3014 3.665 22.0023 3.665C21.8819 3.665 21.753 3.68391 21.6154 3.72174C21.4779 3.75956 21.3489 3.83349 21.2286 3.94353C21.1082 4.05012 21.0085 4.2083 20.9294 4.41805C20.8538 4.6278 20.816 4.90633 20.816 5.25362L20.0113 4.87194C20.0113 4.4318 20.1007 4.01917 20.2795 3.63405C20.4584 3.24893 20.7266 2.93774 21.0842 2.70048C21.4452 2.46322 21.8991 2.34458 22.4459 2.34458C22.8826 2.34458 23.2384 2.41851 23.5135 2.56637C23.7886 2.71423 24.0018 2.90163 24.1531 3.12858C24.3078 3.35553 24.4179 3.59279 24.4832 3.84037C24.5485 4.08451 24.5881 4.30801 24.6018 4.51089C24.6156 4.71377 24.6225 4.86163 24.6225 4.95447V8.08014H23.1989ZM19.3924 8.08014V0.652802H20.6406V4.46963H20.816V8.08014H19.3924Z" fill="#31353B"/>
<path d="M28.9834 8.08014V6.92478H25.7545V5.61468L28.0962 0.652802H29.7055L27.3638 5.61468H28.9834V3.75784H30.4069V5.61468H31.0672V6.92478H30.4069V8.08014H28.9834ZM33.8548 8.23488C33.4559 8.23488 33.1172 8.15923 32.8387 8.00793C32.5636 7.85319 32.3539 7.6486 32.2095 7.39414C32.0685 7.13625 31.998 6.85257 31.998 6.54309C31.998 6.2852 32.0375 6.04966 32.1166 5.83646C32.1957 5.62327 32.3229 5.43587 32.4983 5.27426C32.6771 5.1092 32.9161 4.97166 33.2152 4.86163C33.4216 4.78598 33.6674 4.71893 33.9528 4.66047C34.2382 4.60201 34.5615 4.547 34.9225 4.49542C35.2836 4.4404 35.6807 4.38023 36.114 4.31489L35.6085 4.59342C35.6085 4.26331 35.5294 4.02089 35.3712 3.86616C35.2131 3.71142 34.9483 3.63405 34.5769 3.63405C34.3706 3.63405 34.1557 3.68391 33.9322 3.78363C33.7087 3.88335 33.5522 4.06044 33.4628 4.31489L32.194 3.91258C32.335 3.45181 32.5997 3.077 32.9883 2.78816C33.3769 2.49932 33.9064 2.3549 34.5769 2.3549C35.0686 2.3549 35.5053 2.43055 35.887 2.58185C36.2687 2.73314 36.5575 2.99448 36.7535 3.36584C36.8636 3.57216 36.9289 3.77847 36.9495 3.98479C36.9702 4.1911 36.9805 4.42149 36.9805 4.67594V8.08014H35.7529V6.93509L35.9283 7.17235C35.6566 7.54716 35.3626 7.81881 35.0463 7.9873C34.7334 8.15235 34.3362 8.23488 33.8548 8.23488ZM34.154 7.13109C34.4119 7.13109 34.6285 7.08639 34.8039 6.99699C34.9827 6.90414 35.1237 6.79927 35.2268 6.68236C35.3334 6.56544 35.4056 6.46744 35.4434 6.38836C35.5157 6.23706 35.5569 6.06169 35.5672 5.86225C35.581 5.65938 35.5879 5.49089 35.5879 5.35678L36.0005 5.45994C35.5844 5.52871 35.2474 5.58717 34.9896 5.63531C34.7317 5.68001 34.5236 5.72127 34.3655 5.7591C34.2073 5.79692 34.068 5.83818 33.9477 5.88289C33.8101 5.9379 33.6984 5.99808 33.6124 6.06341C33.5299 6.12531 33.468 6.19408 33.4267 6.26973C33.3889 6.34537 33.37 6.42962 33.37 6.52246C33.37 6.64969 33.4009 6.75972 33.4628 6.85257C33.5282 6.94197 33.6193 7.01074 33.7362 7.05888C33.8531 7.10702 33.9924 7.13109 34.154 7.13109ZM38.4248 8.08014V0.498066H39.8277V8.08014H38.4248ZM43.9633 8.23488C43.3925 8.23488 42.8887 8.11281 42.452 7.86867C42.0188 7.62109 41.6783 7.28239 41.4308 6.85257C41.1866 6.4193 41.0646 5.92415 41.0646 5.3671C41.0646 4.75847 41.1849 4.22893 41.4256 3.77847C41.6663 3.32802 41.9981 2.979 42.4211 2.73142C42.844 2.48041 43.3306 2.3549 43.8808 2.3549C44.4653 2.3549 44.9622 2.49244 45.3714 2.76753C45.7806 3.04262 46.0832 3.42946 46.2792 3.92805C46.4752 4.42665 46.5439 5.01292 46.4855 5.68689H45.098V5.1711C45.098 4.60373 45.0069 4.19626 44.8247 3.94868C44.6458 3.69767 44.3518 3.57216 43.9427 3.57216C43.4647 3.57216 43.1122 3.7183 42.8853 4.01058C42.6618 4.29942 42.55 4.72752 42.55 5.29489C42.55 5.81411 42.6618 6.21643 42.8853 6.50183C43.1122 6.78379 43.4441 6.92478 43.8808 6.92478C44.1558 6.92478 44.3914 6.8646 44.5874 6.74425C44.7834 6.6239 44.933 6.45025 45.0361 6.2233L46.4391 6.62562C46.2293 7.13453 45.8975 7.52997 45.4436 7.81193C44.9931 8.09389 44.4997 8.23488 43.9633 8.23488ZM42.1168 5.68689V4.645H45.8098V5.68689H42.1168ZM46.8297 8.08014L48.8206 5.26394L46.871 2.50964H48.5215L49.6356 4.16016L50.729 2.50964H52.3796L50.4299 5.26394L52.4311 8.08014H50.7806L49.6356 6.36773L48.4802 8.08014H46.8297Z" fill="#FF0000"/>
</svg>
