<svg width="200" height="147" viewBox="0 0 200 147" fill="none" xmlns="http://www.w3.org/2000/svg">
<path d="M81.0693 65.4906V55.9594C81.116 53.3897 82.9755 48.1942 90.0399 47.97C97.1042 47.7457 105.505 47.8765 108.822 47.97C110.628 48.099 113.986 46.4189 115.759 42.3634V22.0394C114.662 19.9837 110.84 15.8161 104.337 15.5918C97.833 15.3676 92.8432 15.4984 91.1612 15.5918C88.6849 16.3861 83.6483 18.7876 83.3119 22.0394C82.9755 25.2913 83.1718 29.1879 83.3119 30.7297H99.5711V32.692H75.8832C72.6127 33.0658 66.0156 36.0279 65.7913 44.8863C65.567 53.7448 65.6979 54.9315 65.7913 54.4176C66.1184 57.6414 68.2021 64.3693 73.9209 65.4906H81.0693Z" fill="#3970A2" stroke="black" stroke-width="0.420495"/>
<path d="M118.563 33.2527V42.7839C118.516 45.3536 116.656 50.549 109.592 50.7733C102.528 50.9976 94.1271 50.8668 90.8098 50.7733C89.004 50.6443 85.6454 52.3244 83.8725 56.3799V76.7038C84.9702 78.7596 88.7915 82.9272 95.2951 83.1514C101.799 83.3757 106.789 83.2449 108.471 83.1514C110.947 82.3572 115.983 79.9557 116.32 76.7038C116.656 73.452 116.46 69.5554 116.32 68.0136H100.061V66.0513H123.749C127.019 65.6775 133.616 62.7154 133.841 53.8569C134.065 44.9985 133.934 43.8118 133.841 44.3257C133.513 41.1019 131.43 34.374 125.711 33.2527H118.563Z" fill="#FED141" stroke="black" stroke-width="0.420495"/>
<circle cx="90.4604" cy="23.5813" r="3.2238" fill="white" stroke="black" stroke-width="0.84099"/>
<circle cx="108.682" cy="74.6014" r="3.2238" fill="white" stroke="black" stroke-width="0.84099"/>
<path d="M73.951 108.41V97.2199H77.8676C78.7416 97.2199 79.4663 97.3691 80.0418 97.6675C80.6173 97.9552 81.0436 98.3549 81.3207 98.8665C81.6085 99.3674 81.7524 99.9376 81.7524 100.577C81.7524 101.185 81.6138 101.744 81.3367 102.256C81.0703 102.757 80.6493 103.156 80.0738 103.455C79.4983 103.753 78.7629 103.902 77.8676 103.902H75.6455V108.41H73.951ZM75.6455 102.511H77.7877C78.587 102.511 79.1572 102.341 79.4983 102C79.85 101.648 80.0258 101.174 80.0258 100.577C80.0258 99.9589 79.85 99.4793 79.4983 99.1382C79.1572 98.7865 78.587 98.6107 77.7877 98.6107H75.6455V102.511ZM84.2906 111.927L86.193 107.755H85.7294L82.596 100.481H84.4345L86.8644 106.348L89.4063 100.481H91.1968L86.0811 111.927H84.2906ZM95.9151 108.41C95.1371 108.41 94.519 108.224 94.0607 107.851C93.6024 107.467 93.3733 106.79 93.3733 105.821V101.904H92.0144V100.481H93.3733L93.5811 98.4668H95.0679V100.481H97.306V101.904H95.0679V105.821C95.0679 106.258 95.1585 106.561 95.3396 106.732C95.5315 106.892 95.8565 106.972 96.3148 106.972H97.226V108.41H95.9151ZM99.0532 108.41V96.9001H100.748V101.76C101.014 101.302 101.382 100.945 101.851 100.689C102.33 100.422 102.858 100.289 103.434 100.289C104.382 100.289 105.128 100.588 105.672 101.185C106.215 101.781 106.487 102.671 106.487 103.854V108.41H104.808V104.03C104.808 102.495 104.196 101.728 102.97 101.728C102.33 101.728 101.798 101.952 101.371 102.399C100.956 102.847 100.748 103.487 100.748 104.318V108.41H99.0532ZM112.192 108.602C111.435 108.602 110.753 108.432 110.145 108.091C109.549 107.739 109.074 107.254 108.723 106.636C108.371 106.007 108.195 105.277 108.195 104.446C108.195 103.614 108.371 102.89 108.723 102.272C109.085 101.643 109.57 101.158 110.177 100.817C110.785 100.465 111.462 100.289 112.208 100.289C112.964 100.289 113.641 100.465 114.238 100.817C114.845 101.158 115.325 101.643 115.677 102.272C116.039 102.89 116.22 103.614 116.22 104.446C116.22 105.277 116.039 106.007 115.677 106.636C115.325 107.254 114.845 107.739 114.238 108.091C113.63 108.432 112.948 108.602 112.192 108.602ZM112.192 107.147C112.597 107.147 112.97 107.046 113.311 106.844C113.662 106.641 113.945 106.343 114.158 105.948C114.371 105.543 114.478 105.043 114.478 104.446C114.478 103.849 114.371 103.353 114.158 102.959C113.955 102.554 113.678 102.25 113.327 102.048C112.986 101.845 112.613 101.744 112.208 101.744C111.803 101.744 111.424 101.845 111.073 102.048C110.732 102.25 110.454 102.554 110.241 102.959C110.028 103.353 109.922 103.849 109.922 104.446C109.922 105.043 110.028 105.543 110.241 105.948C110.454 106.343 110.732 106.641 111.073 106.844C111.414 107.046 111.787 107.147 112.192 107.147ZM118.053 108.41V100.481H119.556L119.683 101.872C119.929 101.382 120.286 100.998 120.755 100.721C121.234 100.433 121.783 100.289 122.401 100.289C123.36 100.289 124.112 100.588 124.655 101.185C125.209 101.781 125.487 102.671 125.487 103.854V108.41H123.808V104.03C123.808 102.495 123.179 101.728 121.922 101.728C121.293 101.728 120.771 101.952 120.355 102.399C119.95 102.847 119.747 103.487 119.747 104.318V108.41H118.053Z" fill="#2E2E48"/>
<path d="M51.6609 126.694V118.701H54.116C55.5243 118.701 56.5596 119.059 57.2219 119.774C57.8918 120.49 58.2268 121.472 58.2268 122.72C58.2268 123.946 57.8918 124.917 57.2219 125.632C56.5596 126.34 55.5243 126.694 54.116 126.694H51.6609ZM52.6201 125.895H54.0931C54.8696 125.895 55.4863 125.769 55.943 125.518C56.4074 125.259 56.7385 124.894 56.9365 124.422C57.1344 123.942 57.2334 123.375 57.2334 122.72C57.2334 122.051 57.1344 121.476 56.9365 120.996C56.7385 120.517 56.4074 120.147 55.943 119.889C55.4863 119.63 54.8696 119.5 54.0931 119.5H52.6201V125.895ZM62.2153 126.831C61.6748 126.831 61.1952 126.709 60.7765 126.466C60.3578 126.215 60.0267 125.868 59.7831 125.427C59.5471 124.985 59.4291 124.464 59.4291 123.862C59.4291 123.269 59.5471 122.751 59.7831 122.309C60.0191 121.86 60.3464 121.514 60.7651 121.27C61.1914 121.019 61.6824 120.893 62.2381 120.893C62.7862 120.893 63.2582 121.019 63.6541 121.27C64.0576 121.514 64.3659 121.837 64.579 122.241C64.7922 122.644 64.8987 123.078 64.8987 123.543C64.8987 123.626 64.8949 123.71 64.8873 123.794C64.8873 123.878 64.8873 123.973 64.8873 124.079H60.3769C60.3997 124.513 60.4987 124.875 60.6737 125.164C60.8564 125.446 61.081 125.659 61.3475 125.804C61.6215 125.948 61.9108 126.02 62.2153 126.02C62.6112 126.02 62.9423 125.929 63.2087 125.746C63.4752 125.564 63.6693 125.316 63.7911 125.004H64.7389C64.5866 125.529 64.2935 125.967 63.8596 126.317C63.4333 126.66 62.8852 126.831 62.2153 126.831ZM62.2153 121.704C61.7585 121.704 61.3513 121.845 60.9935 122.127C60.6433 122.401 60.4416 122.804 60.3883 123.337H63.951C63.9281 122.827 63.753 122.427 63.4257 122.138C63.0984 121.849 62.6949 121.704 62.2153 121.704ZM68.4539 126.831C67.7763 126.831 67.213 126.66 66.7639 126.317C66.3147 125.975 66.0521 125.51 65.976 124.924H66.958C67.0189 125.221 67.1749 125.48 67.4262 125.701C67.685 125.914 68.0314 126.02 68.4653 126.02C68.8688 126.02 69.1656 125.937 69.356 125.769C69.5463 125.594 69.6414 125.389 69.6414 125.153C69.6414 124.81 69.5158 124.582 69.2646 124.468C69.021 124.353 68.6746 124.251 68.2255 124.159C67.921 124.098 67.6165 124.011 67.312 123.897C67.0075 123.782 66.7524 123.623 66.5469 123.417C66.3414 123.204 66.2386 122.926 66.2386 122.583C66.2386 122.089 66.4213 121.685 66.7867 121.373C67.1597 121.053 67.6622 120.893 68.294 120.893C68.8954 120.893 69.3864 121.046 69.767 121.35C70.1553 121.647 70.3799 122.073 70.4408 122.629H69.493C69.4549 122.34 69.3293 122.115 69.1162 121.955C68.9106 121.788 68.6328 121.704 68.2826 121.704C67.94 121.704 67.6736 121.776 67.4833 121.921C67.3006 122.066 67.2092 122.256 67.2092 122.492C67.2092 122.72 67.3272 122.899 67.5632 123.029C67.8068 123.158 68.1341 123.269 68.5452 123.36C68.8954 123.436 69.2265 123.531 69.5387 123.645C69.8584 123.752 70.1172 123.916 70.3152 124.136C70.5207 124.35 70.6235 124.662 70.6235 125.073C70.6311 125.583 70.437 126.005 70.0411 126.34C69.6529 126.668 69.1238 126.831 68.4539 126.831ZM72.6903 119.774C72.5 119.774 72.3401 119.713 72.2107 119.592C72.0889 119.462 72.028 119.302 72.028 119.112C72.028 118.929 72.0889 118.777 72.2107 118.655C72.3401 118.533 72.5 118.473 72.6903 118.473C72.873 118.473 73.029 118.533 73.1585 118.655C73.2879 118.777 73.3526 118.929 73.3526 119.112C73.3526 119.302 73.2879 119.462 73.1585 119.592C73.029 119.713 72.873 119.774 72.6903 119.774ZM72.2107 126.694V121.03H73.1699V126.694H72.2107ZM77.1923 124.913C76.8726 124.913 76.5795 124.871 76.313 124.787L75.7421 125.324C75.8258 125.385 75.9286 125.438 76.0504 125.484C76.1798 125.522 76.3625 125.56 76.5985 125.598C76.8345 125.628 77.1656 125.663 77.5919 125.701C78.3532 125.754 78.8975 125.929 79.2249 126.226C79.5522 126.523 79.7159 126.911 79.7159 127.391C79.7159 127.718 79.6245 128.03 79.4418 128.327C79.2667 128.624 78.9927 128.868 78.6196 129.058C78.2542 129.248 77.7823 129.343 77.2037 129.343C76.6937 129.343 76.2407 129.275 75.8449 129.138C75.449 129.008 75.1407 128.807 74.9199 128.533C74.6992 128.266 74.5888 127.927 74.5888 127.516C74.5888 127.303 74.6459 127.071 74.7601 126.82C74.8742 126.576 75.0874 126.344 75.3995 126.123C75.232 126.055 75.0874 125.982 74.9656 125.906C74.8514 125.823 74.7448 125.731 74.6459 125.632V125.37L75.6165 124.41C75.1673 124.03 74.9428 123.527 74.9428 122.903C74.9428 122.53 75.0303 122.191 75.2054 121.887C75.3805 121.582 75.6355 121.343 75.9705 121.167C76.3054 120.985 76.7127 120.893 77.1923 120.893C77.5196 120.893 77.8165 120.939 78.083 121.03H80.1726V121.75L79.1107 121.795C79.3314 122.115 79.4418 122.484 79.4418 122.903C79.4418 123.276 79.3505 123.615 79.1678 123.919C78.9927 124.224 78.7376 124.468 78.4027 124.65C78.0753 124.825 77.6719 124.913 77.1923 124.913ZM77.1923 124.125C77.5958 124.125 77.9155 124.022 78.1515 123.817C78.3951 123.603 78.5169 123.299 78.5169 122.903C78.5169 122.515 78.3951 122.218 78.1515 122.012C77.9155 121.799 77.5958 121.693 77.1923 121.693C76.7812 121.693 76.4539 121.799 76.2103 122.012C75.9743 122.218 75.8563 122.515 75.8563 122.903C75.8563 123.299 75.9743 123.603 76.2103 123.817C76.4539 124.022 76.7812 124.125 77.1923 124.125ZM75.5251 127.425C75.5251 127.806 75.685 128.087 76.0047 128.27C76.3244 128.46 76.7241 128.555 77.2037 128.555C77.6757 128.555 78.0525 128.453 78.3342 128.247C78.6235 128.042 78.7681 127.768 78.7681 127.425C78.7681 127.181 78.6691 126.968 78.4712 126.786C78.2733 126.61 77.9079 126.508 77.375 126.477C76.9563 126.447 76.5947 126.409 76.2902 126.363C75.9781 126.531 75.7725 126.709 75.6736 126.9C75.5746 127.098 75.5251 127.273 75.5251 127.425ZM81.3688 126.694V121.03H82.2367L82.2938 122.047C82.4765 121.689 82.7391 121.407 83.0817 121.202C83.4242 120.996 83.8125 120.893 84.2464 120.893C84.9163 120.893 85.4492 121.099 85.8451 121.51C86.2485 121.913 86.4503 122.538 86.4503 123.383V126.694H85.4911V123.485C85.4911 122.306 85.0039 121.716 84.0295 121.716C83.5422 121.716 83.135 121.894 82.8076 122.252C82.4879 122.602 82.328 123.105 82.328 123.76V126.694H81.3688ZM92.2958 126.694L90.64 121.03H91.5992L92.7982 125.472L94.1228 121.03H95.2076L96.5436 125.472L97.7312 121.03H98.7018L97.046 126.694H96.064L94.6709 122.024L93.2778 126.694H92.2958ZM102.246 126.831C101.713 126.831 101.233 126.709 100.807 126.466C100.381 126.222 100.042 125.88 99.7906 125.438C99.547 124.989 99.4252 124.464 99.4252 123.862C99.4252 123.261 99.5508 122.739 99.802 122.298C100.053 121.849 100.392 121.502 100.818 121.259C101.252 121.015 101.736 120.893 102.268 120.893C102.801 120.893 103.281 121.015 103.707 121.259C104.134 121.502 104.469 121.849 104.712 122.298C104.963 122.739 105.089 123.261 105.089 123.862C105.089 124.464 104.963 124.989 104.712 125.438C104.461 125.88 104.118 126.222 103.684 126.466C103.258 126.709 102.779 126.831 102.246 126.831ZM102.246 126.009C102.573 126.009 102.878 125.929 103.159 125.769C103.441 125.609 103.669 125.37 103.844 125.05C104.019 124.73 104.107 124.334 104.107 123.862C104.107 123.39 104.019 122.994 103.844 122.675C103.677 122.355 103.452 122.115 103.171 121.955C102.889 121.795 102.588 121.716 102.268 121.716C101.941 121.716 101.637 121.795 101.355 121.955C101.073 122.115 100.845 122.355 100.67 122.675C100.495 122.994 100.407 123.39 100.407 123.862C100.407 124.334 100.495 124.73 100.67 125.05C100.845 125.37 101.07 125.609 101.344 125.769C101.625 125.929 101.926 126.009 102.246 126.009ZM106.537 126.694V121.03H107.405L107.485 122.115C107.66 121.742 107.926 121.445 108.284 121.225C108.642 121.004 109.083 120.893 109.609 120.893V121.898H109.346C109.011 121.898 108.703 121.959 108.421 122.081C108.139 122.195 107.915 122.393 107.747 122.675C107.58 122.956 107.496 123.345 107.496 123.839V126.694H106.537ZM110.799 126.694V118.473H111.759V123.417L114.077 121.03H115.253L112.741 123.588L115.572 126.694H114.351L111.759 123.76V126.694H110.799ZM118.503 126.831C117.825 126.831 117.262 126.66 116.813 126.317C116.363 125.975 116.101 125.51 116.025 124.924H117.007C117.068 125.221 117.224 125.48 117.475 125.701C117.734 125.914 118.08 126.02 118.514 126.02C118.918 126.02 119.214 125.937 119.405 125.769C119.595 125.594 119.69 125.389 119.69 125.153C119.69 124.81 119.565 124.582 119.313 124.468C119.07 124.353 118.723 124.251 118.274 124.159C117.97 124.098 117.665 124.011 117.361 123.897C117.056 123.782 116.801 123.623 116.596 123.417C116.39 123.204 116.287 122.926 116.287 122.583C116.287 122.089 116.47 121.685 116.835 121.373C117.208 121.053 117.711 120.893 118.343 120.893C118.944 120.893 119.435 121.046 119.816 121.35C120.204 121.647 120.429 122.073 120.49 122.629H119.542C119.504 122.34 119.378 122.115 119.165 121.955C118.959 121.788 118.682 121.704 118.331 121.704C117.989 121.704 117.722 121.776 117.532 121.921C117.349 122.066 117.258 122.256 117.258 122.492C117.258 122.72 117.376 122.899 117.612 123.029C117.856 123.158 118.183 123.269 118.594 123.36C118.944 123.436 119.275 123.531 119.587 123.645C119.907 123.752 120.166 123.916 120.364 124.136C120.569 124.35 120.672 124.662 120.672 125.073C120.68 125.583 120.486 126.005 120.09 126.34C119.702 126.668 119.173 126.831 118.503 126.831ZM122.157 129.206V121.03H123.025L123.116 121.967C123.299 121.693 123.557 121.445 123.892 121.225C124.235 121.004 124.669 120.893 125.194 120.893C125.757 120.893 126.248 121.023 126.667 121.282C127.086 121.54 127.409 121.894 127.638 122.344C127.874 122.793 127.992 123.303 127.992 123.874C127.992 124.445 127.874 124.955 127.638 125.404C127.409 125.845 127.082 126.196 126.656 126.454C126.237 126.706 125.746 126.831 125.183 126.831C124.718 126.831 124.303 126.736 123.938 126.546C123.58 126.355 123.306 126.089 123.116 125.746V129.206H122.157ZM125.08 125.998C125.461 125.998 125.796 125.91 126.085 125.735C126.374 125.552 126.602 125.301 126.77 124.981C126.937 124.662 127.021 124.289 127.021 123.862C127.021 123.436 126.937 123.063 126.77 122.743C126.602 122.424 126.374 122.176 126.085 122.001C125.796 121.818 125.461 121.727 125.08 121.727C124.699 121.727 124.364 121.818 124.075 122.001C123.786 122.176 123.557 122.424 123.39 122.743C123.222 123.063 123.139 123.436 123.139 123.862C123.139 124.289 123.222 124.662 123.39 124.981C123.557 125.301 123.786 125.552 124.075 125.735C124.364 125.91 124.699 125.998 125.08 125.998ZM131.325 126.831C130.853 126.831 130.461 126.751 130.149 126.591C129.837 126.432 129.605 126.218 129.453 125.952C129.3 125.686 129.224 125.396 129.224 125.084C129.224 124.506 129.445 124.06 129.886 123.748C130.328 123.436 130.929 123.28 131.691 123.28H133.221V123.211C133.221 122.717 133.091 122.344 132.833 122.092C132.574 121.834 132.227 121.704 131.793 121.704C131.42 121.704 131.097 121.799 130.823 121.99C130.556 122.172 130.389 122.443 130.32 122.8H129.338C129.376 122.389 129.513 122.043 129.749 121.761C129.993 121.48 130.294 121.266 130.652 121.122C131.009 120.97 131.39 120.893 131.793 120.893C132.585 120.893 133.179 121.107 133.575 121.533C133.978 121.952 134.18 122.511 134.18 123.211V126.694H133.324L133.266 125.678C133.107 125.998 132.871 126.272 132.559 126.5C132.254 126.721 131.843 126.831 131.325 126.831ZM131.474 126.02C131.839 126.02 132.151 125.925 132.41 125.735C132.677 125.545 132.878 125.297 133.015 124.993C133.152 124.688 133.221 124.369 133.221 124.034V124.022H131.771C131.207 124.022 130.808 124.121 130.572 124.319C130.343 124.509 130.229 124.749 130.229 125.038C130.229 125.335 130.336 125.575 130.549 125.758C130.77 125.933 131.078 126.02 131.474 126.02ZM138.337 126.831C137.796 126.831 137.309 126.709 136.875 126.466C136.449 126.215 136.11 125.868 135.859 125.427C135.615 124.978 135.493 124.456 135.493 123.862C135.493 123.269 135.615 122.751 135.859 122.309C136.11 121.86 136.449 121.514 136.875 121.27C137.309 121.019 137.796 120.893 138.337 120.893C139.007 120.893 139.57 121.068 140.027 121.419C140.491 121.769 140.784 122.237 140.906 122.823H139.924C139.848 122.473 139.661 122.203 139.364 122.012C139.067 121.815 138.721 121.716 138.325 121.716C138.006 121.716 137.705 121.795 137.423 121.955C137.141 122.115 136.913 122.355 136.738 122.675C136.563 122.994 136.475 123.39 136.475 123.862C136.475 124.334 136.563 124.73 136.738 125.05C136.913 125.37 137.141 125.613 137.423 125.781C137.705 125.941 138.006 126.02 138.325 126.02C138.721 126.02 139.067 125.925 139.364 125.735C139.661 125.537 139.848 125.259 139.924 124.901H140.906C140.792 125.472 140.502 125.937 140.038 126.295C139.574 126.652 139.007 126.831 138.337 126.831ZM144.906 126.831C144.366 126.831 143.886 126.709 143.467 126.466C143.049 126.215 142.717 125.868 142.474 125.427C142.238 124.985 142.12 124.464 142.12 123.862C142.12 123.269 142.238 122.751 142.474 122.309C142.71 121.86 143.037 121.514 143.456 121.27C143.882 121.019 144.373 120.893 144.929 120.893C145.477 120.893 145.949 121.019 146.345 121.27C146.748 121.514 147.057 121.837 147.27 122.241C147.483 122.644 147.59 123.078 147.59 123.543C147.59 123.626 147.586 123.71 147.578 123.794C147.578 123.878 147.578 123.973 147.578 124.079H143.068C143.091 124.513 143.189 124.875 143.365 125.164C143.547 125.446 143.772 125.659 144.038 125.804C144.312 125.948 144.602 126.02 144.906 126.02C145.302 126.02 145.633 125.929 145.9 125.746C146.166 125.564 146.36 125.316 146.482 125.004H147.43C147.277 125.529 146.984 125.967 146.55 126.317C146.124 126.66 145.576 126.831 144.906 126.831ZM144.906 121.704C144.449 121.704 144.042 121.845 143.684 122.127C143.334 122.401 143.132 122.804 143.079 123.337H146.642C146.619 122.827 146.444 122.427 146.117 122.138C145.789 121.849 145.386 121.704 144.906 121.704Z" fill="#79819A"/>
<path d="M0.685791 0.5H190.311C195.08 0.5 198.946 4.36608 198.946 9.13514V145.662H0.685791V0.5Z" stroke="#CFCFCF"/>
</svg>
