<svg width="61" height="70" viewBox="0 0 61 70" fill="none" xmlns="http://www.w3.org/2000/svg">
<path d="M4.39449 66.1338C3.62118 66.1338 2.94453 65.9628 2.36455 65.6208C1.78456 65.2787 1.33099 64.8066 1.00382 64.2043C0.676647 63.5946 0.513062 62.8919 0.513062 62.0963C0.513062 61.3007 0.676647 60.6017 1.00382 59.9994C1.33099 59.3897 1.78456 58.9138 2.36455 58.5718C2.94453 58.2297 3.62118 58.0587 4.39449 58.0587C5.1678 58.0587 5.84444 58.2297 6.42443 58.5718C7.00441 58.9138 7.45427 59.3897 7.774 59.9994C8.10117 60.6017 8.26476 61.3007 8.26476 62.0963C8.26476 62.8919 8.10117 63.5946 7.774 64.2043C7.45427 64.8066 7.00441 65.2787 6.42443 65.6208C5.84444 65.9628 5.1678 66.1338 4.39449 66.1338ZM4.39449 65.0743C4.92985 65.0743 5.39458 64.9553 5.78868 64.7173C6.1902 64.4794 6.5025 64.1374 6.72557 63.6912C6.94864 63.2451 7.06018 62.7134 7.06018 62.0963C7.06018 61.4791 6.94864 60.9475 6.72557 60.5013C6.5025 60.0552 6.1902 59.7131 5.78868 59.4752C5.39458 59.2373 4.92985 59.1183 4.39449 59.1183C3.85912 59.1183 3.39067 59.2373 2.98914 59.4752C2.58762 59.7131 2.27532 60.0552 2.05225 60.5013C1.83661 60.9475 1.72879 61.4791 1.72879 62.0963C1.72879 62.7134 1.83661 63.2451 2.05225 63.6912C2.27532 64.1374 2.58762 64.4794 2.98914 64.7173C3.39067 64.9553 3.85912 65.0743 4.39449 65.0743ZM9.53721 66V60.4679H10.5856L10.6749 61.4382C10.8459 61.0962 11.095 60.8285 11.4222 60.6352C11.7568 60.4344 12.1397 60.334 12.571 60.334C13.2402 60.334 13.7644 60.5422 14.1436 60.9586C14.5303 61.375 14.7236 61.9959 14.7236 62.8212V66H13.5525V62.9439C13.5525 61.8732 13.1138 61.3378 12.2364 61.3378C11.7977 61.3378 11.4333 61.494 11.1433 61.8063C10.8608 62.1186 10.7195 62.5647 10.7195 63.1447V66H9.53721ZM16.116 66V57.9695H17.2983V66H16.116ZM19.4647 59.4194C19.2416 59.4194 19.0558 59.3525 18.907 59.2187C18.7658 59.0774 18.6951 58.9026 18.6951 58.6944C18.6951 58.4862 18.7658 58.3152 18.907 58.1814C19.0558 58.0401 19.2416 57.9695 19.4647 57.9695C19.6878 57.9695 19.87 58.0401 20.0112 58.1814C20.16 58.3152 20.2343 58.4862 20.2343 58.6944C20.2343 58.9026 20.16 59.0774 20.0112 59.2187C19.87 59.3525 19.6878 59.4194 19.4647 59.4194ZM18.8736 66V60.4679H20.0559V66H18.8736ZM21.6166 66V60.4679H22.665L22.7542 61.4382C22.9252 61.0962 23.1743 60.8285 23.5015 60.6352C23.8361 60.4344 24.219 60.334 24.6503 60.334C25.3195 60.334 25.8437 60.5422 26.223 60.9586C26.6096 61.375 26.8029 61.9959 26.8029 62.8212V66H25.6318V62.9439C25.6318 61.8732 25.1931 61.3378 24.3157 61.3378C23.877 61.3378 23.5127 61.494 23.2227 61.8063C22.9401 62.1186 22.7988 62.5647 22.7988 63.1447V66H21.6166ZM30.783 66.1338C30.2402 66.1338 29.7569 66.0149 29.333 65.7769C28.9167 65.5316 28.5895 65.1932 28.3515 64.762C28.1136 64.3307 27.9946 63.8288 27.9946 63.2562C27.9946 62.6763 28.1099 62.1669 28.3404 61.7282C28.5783 61.2895 28.9055 60.9475 29.3219 60.7021C29.7457 60.4567 30.2365 60.334 30.7942 60.334C31.337 60.334 31.8091 60.4567 32.2107 60.7021C32.6122 60.94 32.9245 61.2598 33.1476 61.6613C33.3706 62.0628 33.4822 62.5052 33.4822 62.9886C33.4822 63.0629 33.4784 63.1447 33.471 63.2339C33.471 63.3157 33.4673 63.4087 33.4599 63.5128H29.1546C29.1918 64.0481 29.3665 64.4571 29.6788 64.7397C29.9985 65.0148 30.3666 65.1523 30.783 65.1523C31.1176 65.1523 31.3964 65.078 31.6195 64.9293C31.85 64.7731 32.021 64.5649 32.1326 64.3047H33.3149C33.1661 64.8252 32.8687 65.2602 32.4226 65.6096C31.9839 65.9591 31.4373 66.1338 30.783 66.1338ZM30.783 61.3044C30.3889 61.3044 30.0394 61.4233 29.7346 61.6613C29.4297 61.8918 29.2438 62.2413 29.1769 62.7097H32.2999C32.2776 62.2784 32.1251 61.9364 31.8426 61.6836C31.56 61.4308 31.2068 61.3044 30.783 61.3044ZM37.4075 66V65.1523C37.9131 64.7508 38.3964 64.3456 38.8575 63.9366C39.3185 63.5276 39.7274 63.1261 40.0843 62.732C40.4487 62.3305 40.735 61.9401 40.9432 61.5609C41.1514 61.1742 41.2555 60.8025 41.2555 60.4455C41.2555 60.2076 41.2146 59.9845 41.1328 59.7763C41.051 59.5607 40.9171 59.3897 40.7312 59.2633C40.5454 59.1294 40.2963 59.0625 39.984 59.0625C39.5155 59.0625 39.1623 59.2112 38.9244 59.5087C38.6939 59.8061 38.5823 60.163 38.5898 60.5794H37.441C37.4484 60.0292 37.5636 59.5681 37.7867 59.1964C38.0172 58.8246 38.3221 58.542 38.7013 58.3487C39.088 58.1554 39.5229 58.0587 40.0063 58.0587C40.7424 58.0587 41.3298 58.2669 41.7685 58.6833C42.2147 59.0923 42.4377 59.6648 42.4377 60.4009C42.4377 60.8396 42.3299 61.2746 42.1143 61.7059C41.9061 62.1372 41.631 62.5536 41.2889 62.9551C40.9543 63.3492 40.5937 63.721 40.207 64.0704C39.8204 64.4199 39.4523 64.7359 39.1028 65.0185H42.672V66H37.4075ZM47.3628 66V64.4385H43.4479V63.5016L47.1732 58.1925H48.5339V63.4124H49.627V64.4385H48.5339V66H47.3628ZM44.7306 63.4124H47.4297V59.4975L44.7306 63.4124ZM50.2521 67.1488L53.0405 57.4006H54.2004L51.4009 67.1488H50.2521ZM55.8316 66L58.8542 59.2075H54.7943V58.1925H60.07V59.0514L57.0697 66H55.8316Z" fill="#A39E9E"/>
<path d="M3.96718 47.1576C3.29285 47.1576 2.70171 47.0394 2.19377 46.803C1.68583 46.5665 1.28736 46.2293 0.998364 45.7915C0.718121 45.3536 0.573621 44.8325 0.564864 44.2282H2.03614C2.04489 44.7187 2.21567 45.1346 2.54845 45.4762C2.88124 45.8177 3.34977 45.9885 3.95405 45.9885C4.48826 45.9885 4.90424 45.8615 5.202 45.6075C5.50852 45.3448 5.66177 45.012 5.66177 44.6092C5.66177 44.2852 5.58733 44.0224 5.43845 43.821C5.29833 43.6196 5.10129 43.4532 4.84732 43.3218C4.60211 43.1905 4.31748 43.0722 3.99345 42.9671C3.66942 42.862 3.32788 42.7482 2.96882 42.6256C2.25945 42.3891 1.72524 42.0826 1.36618 41.706C1.01588 41.3295 0.840727 40.8347 0.840727 40.2216C0.83197 39.7049 0.950197 39.2539 1.19541 38.8686C1.44938 38.4833 1.79968 38.1855 2.24632 37.9753C2.70171 37.7564 3.23155 37.6469 3.83582 37.6469C4.43133 37.6469 4.95241 37.7564 5.39905 37.9753C5.85444 38.1943 6.20912 38.5008 6.46309 38.8949C6.71706 39.2802 6.84842 39.7312 6.85718 40.2479H5.38591C5.38591 40.0115 5.32461 39.7881 5.202 39.578C5.07939 39.359 4.89986 39.1795 4.66341 39.0394C4.42695 38.8992 4.13795 38.8292 3.79641 38.8292C3.35853 38.8204 2.99509 38.9299 2.70609 39.1576C2.42585 39.3853 2.28573 39.7006 2.28573 40.1034C2.28573 40.4625 2.39082 40.7383 2.601 40.931C2.81118 41.1237 3.10018 41.2857 3.468 41.417C3.83582 41.5397 4.25618 41.6842 4.72909 41.8505C5.18448 41.9994 5.59171 42.179 5.95077 42.3891C6.30983 42.5993 6.59445 42.8752 6.80464 43.2167C7.02358 43.5583 7.13305 43.9918 7.13305 44.5172C7.13305 44.9814 7.01482 45.4149 6.77836 45.8177C6.54191 46.2118 6.18723 46.5358 5.71432 46.7898C5.24141 47.035 4.65903 47.1576 3.96718 47.1576ZM11.0068 47.1576C10.2187 47.1576 9.59687 46.9124 9.14147 46.422C8.69484 45.9316 8.47152 45.2003 8.47152 44.2282V40.4844H9.86397V44.0837C9.86397 45.3448 10.3807 45.9754 11.4141 45.9754C11.9308 45.9754 12.3555 45.7915 12.6883 45.4236C13.0211 45.0558 13.1875 44.5304 13.1875 43.8473V40.4844H14.5799V47H13.3451L13.24 45.8571C13.0386 46.26 12.7408 46.5796 12.3467 46.8161C11.9614 47.0438 11.5148 47.1576 11.0068 47.1576ZM16.3513 49.89V40.4844H17.5992L17.7437 41.4959C17.9539 41.1893 18.2429 40.9179 18.6107 40.6814C18.9786 40.445 19.4515 40.3267 20.0295 40.3267C20.66 40.3267 21.2161 40.4756 21.6978 40.7734C22.1794 41.0711 22.556 41.4783 22.8275 41.995C23.1078 42.5117 23.2479 43.0985 23.2479 43.7553C23.2479 44.4121 23.1078 44.9989 22.8275 45.5156C22.556 46.0235 22.1794 46.4264 21.6978 46.7241C21.2161 47.0131 20.6556 47.1576 20.0163 47.1576C19.5084 47.1576 19.0574 47.0569 18.6633 46.8555C18.2779 46.6541 17.9714 46.3695 17.7437 46.0016V49.89H16.3513ZM19.7799 45.9491C20.3754 45.9491 20.8658 45.7477 21.2511 45.3448C21.6365 44.9332 21.8291 44.399 21.8291 43.7422C21.8291 43.3131 21.7416 42.9321 21.5664 42.5993C21.3913 42.2665 21.1504 42.0082 20.8439 41.8243C20.5374 41.6316 20.1827 41.5353 19.7799 41.5353C19.1844 41.5353 18.6939 41.7411 18.3086 42.1527C17.932 42.5643 17.7437 43.0941 17.7437 43.7422C17.7437 44.399 17.932 44.9332 18.3086 45.3448C18.6939 45.7477 19.1844 45.9491 19.7799 45.9491ZM24.7539 49.89V40.4844H26.0019L26.1464 41.4959C26.3566 41.1893 26.6456 40.9179 27.0134 40.6814C27.3812 40.445 27.8541 40.3267 28.4321 40.3267C29.0627 40.3267 29.6188 40.4756 30.1004 40.7734C30.5821 41.0711 30.9587 41.4783 31.2302 41.995C31.5104 42.5117 31.6505 43.0985 31.6505 43.7553C31.6505 44.4121 31.5104 44.9989 31.2302 45.5156C30.9587 46.0235 30.5821 46.4264 30.1004 46.7241C29.6188 47.0131 29.0583 47.1576 28.419 47.1576C27.911 47.1576 27.46 47.0569 27.0659 46.8555C26.6806 46.6541 26.3741 46.3695 26.1464 46.0016V49.89H24.7539ZM28.1825 45.9491C28.778 45.9491 29.2685 45.7477 29.6538 45.3448C30.0391 44.9332 30.2318 44.399 30.2318 43.7422C30.2318 43.3131 30.1442 42.9321 29.9691 42.5993C29.7939 42.2665 29.5531 42.0082 29.2466 41.8243C28.9401 41.6316 28.5854 41.5353 28.1825 41.5353C27.587 41.5353 27.0966 41.7411 26.7113 42.1527C26.3347 42.5643 26.1464 43.0941 26.1464 43.7422C26.1464 44.399 26.3347 44.9332 26.7113 45.3448C27.0966 45.7477 27.587 45.9491 28.1825 45.9491ZM36.2042 47.1576C35.5824 47.1576 35.022 47.0175 34.5228 46.7373C34.0323 46.4483 33.6426 46.0498 33.3536 45.5419C33.0646 45.0252 32.9201 44.4253 32.9201 43.7422C32.9201 43.0591 33.0646 42.4636 33.3536 41.9556C33.6514 41.4389 34.0499 41.0405 34.549 40.7602C35.0482 40.4712 35.6043 40.3267 36.2174 40.3267C36.8392 40.3267 37.3953 40.4712 37.8857 40.7602C38.3849 41.0405 38.779 41.4389 39.068 41.9556C39.3657 42.4636 39.5146 43.0591 39.5146 43.7422C39.5146 44.4253 39.3657 45.0252 39.068 45.5419C38.779 46.0498 38.3849 46.4483 37.8857 46.7373C37.3865 47.0175 36.826 47.1576 36.2042 47.1576ZM36.2042 45.9622C36.537 45.9622 36.8435 45.879 37.1238 45.7126C37.4128 45.5462 37.6448 45.301 37.82 44.977C37.9952 44.6442 38.0827 44.2326 38.0827 43.7422C38.0827 43.2518 37.9952 42.8445 37.82 42.5205C37.6536 42.1877 37.4259 41.9381 37.1369 41.7717C36.8567 41.6053 36.5502 41.5221 36.2174 41.5221C35.8846 41.5221 35.5737 41.6053 35.2847 41.7717C35.0044 41.9381 34.7767 42.1877 34.6016 42.5205C34.4264 42.8445 34.3389 43.2518 34.3389 43.7422C34.3389 44.2326 34.4264 44.6442 34.6016 44.977C34.7767 45.301 35.0044 45.5462 35.2847 45.7126C35.5649 45.879 35.8714 45.9622 36.2042 45.9622ZM41.0204 47V40.4844H42.2684L42.3866 41.7192C42.6143 41.2901 42.9296 40.9529 43.3324 40.7077C43.7441 40.4537 44.2389 40.3267 44.8169 40.3267V41.7849H44.4359C44.0506 41.7849 43.7046 41.8505 43.3981 41.9819C43.1004 42.1045 42.8595 42.3191 42.6756 42.6256C42.5005 42.9233 42.4129 43.3393 42.4129 43.8735V47H41.0204ZM48.7431 47C48.1038 47 47.5958 46.8467 47.2193 46.5402C46.8427 46.225 46.6544 45.6688 46.6544 44.8719V41.6535H45.5378V40.4844H46.6544L46.8252 38.8292H48.0469V40.4844H49.886V41.6535H48.0469V44.8719C48.0469 45.231 48.1213 45.4806 48.2702 45.6207C48.4278 45.752 48.6949 45.8177 49.0715 45.8177H49.8203V47H48.7431ZM53.9227 47.1576C53.0995 47.1576 52.4208 46.9562 51.8866 46.5534C51.3524 46.1505 51.0459 45.6163 50.967 44.9507H52.3726C52.4427 45.2485 52.6091 45.5068 52.8718 45.7258C53.1345 45.936 53.4805 46.041 53.9096 46.041C54.3299 46.041 54.6365 45.9535 54.8291 45.7783C55.0218 45.6032 55.1181 45.4017 55.1181 45.174C55.1181 44.8413 54.9824 44.6179 54.7109 44.5041C54.4482 44.3815 54.0804 44.272 53.6074 44.1757C53.2396 44.0969 52.8718 43.9918 52.504 43.8604C52.1449 43.729 51.8428 43.5451 51.5976 43.3087C51.3611 43.0635 51.2429 42.7351 51.2429 42.3235C51.2429 41.7542 51.4618 41.2813 51.8997 40.9047C52.3376 40.5194 52.9506 40.3267 53.7388 40.3267C54.4657 40.3267 55.0524 40.5019 55.4991 40.8522C55.9545 41.2025 56.2216 41.6973 56.3004 42.3366H54.9605C54.9167 42.0563 54.7853 41.8374 54.5664 41.6798C54.3562 41.5221 54.0716 41.4433 53.7125 41.4433C53.3622 41.4433 53.0907 41.5178 52.8981 41.6666C52.7054 41.8068 52.6091 41.9907 52.6091 42.2184C52.6091 42.4461 52.7404 42.6256 53.0032 42.757C53.2747 42.8883 53.6293 43.0065 54.0672 43.1116C54.5051 43.208 54.9079 43.3218 55.2758 43.4532C55.6523 43.5758 55.9545 43.7597 56.1822 44.0049C56.4099 44.2501 56.5237 44.6092 56.5237 45.0821C56.5325 45.6776 56.3004 46.1724 55.8275 46.5665C55.3633 46.9606 54.7284 47.1576 53.9227 47.1576Z" fill="#545353"/>
<path d="M27 2C21.486 2 17 6.486 17 12V16.143C17 17.167 17.897 18 19 18H20C20.2652 18 20.5196 17.8946 20.7071 17.7071C20.8946 17.5196 21 17.2652 21 17V11.857C21 11.5918 20.8946 11.3374 20.7071 11.1499C20.5196 10.9624 20.2652 10.857 20 10.857H19.092C19.648 6.987 22.978 4 27 4C31.022 4 34.352 6.987 34.908 10.857H34C33.7348 10.857 33.4804 10.9624 33.2929 11.1499C33.1054 11.3374 33 11.5918 33 11.857V18C33 19.103 32.103 20 31 20H29V19H25V22H31C33.206 22 35 20.206 35 18C36.103 18 37 17.167 37 16.143V12C37 6.486 32.514 2 27 2Z" fill="black"/>
</svg>
