<svg width="11" height="12" viewBox="0 0 11 12" fill="none" xmlns="http://www.w3.org/2000/svg">
<path d="M8.85238 5.45506V9.54948C8.85238 9.81712 8.74606 10.0738 8.55681 10.2631C8.36756 10.4523 8.11088 10.5586 7.84323 10.5586H3.13387C2.86623 10.5586 2.60955 10.4523 2.4203 10.2631C2.23104 10.0738 2.12472 9.81712 2.12472 9.54948V2.82182C2.12472 2.55417 2.23104 2.29749 2.4203 2.10824C2.60955 1.91899 2.86623 1.81267 3.13387 1.81267H5.20998C5.38835 1.81269 5.55941 1.88355 5.68555 2.00966L8.65539 4.9795C8.7815 5.10564 8.85235 5.2767 8.85238 5.45506Z" stroke="white" stroke-width="0.672766" stroke-linejoin="round"/>
<path d="M5.48853 1.98084V4.50371C5.48853 4.68214 5.55941 4.85326 5.68558 4.97943C5.81175 5.1056 5.98287 5.17648 6.1613 5.17648H8.68417M3.80662 6.85839H7.17045M3.80662 8.54031H7.17045" stroke="white" stroke-width="0.672766" stroke-linecap="round" stroke-linejoin="round"/>
</svg>
