<svg width="9" height="8" viewBox="0 0 9 8" fill="none" xmlns="http://www.w3.org/2000/svg">
<path d="M8.33531 0.27004C8.25047 0.185795 8.14404 0.126571 8.02772 0.0988773C7.91141 0.0711832 7.78971 0.0760912 7.676 0.113062L1.11429 2.30179C0.9926 2.34035 0.885062 2.41411 0.805264 2.51376C0.725466 2.6134 0.676986 2.73445 0.665948 2.86163C0.65491 2.98881 0.681808 3.11641 0.743246 3.22831C0.804684 3.34021 0.897905 3.4314 1.01114 3.49035L3.7336 4.83588L5.07913 7.56731C5.13321 7.67422 5.21597 7.76399 5.31814 7.82656C5.42032 7.88913 5.53789 7.92205 5.65771 7.92163H5.70256C5.83087 7.91218 5.95338 7.86436 6.05416 7.78437C6.15494 7.70439 6.22934 7.59594 6.26768 7.47312L8.48781 0.929351C8.52745 0.816296 8.53416 0.694305 8.50717 0.577583C8.48017 0.46086 8.42057 0.354207 8.33531 0.27004ZM1.39237 2.92074L7.11985 1.01008L3.93991 4.19002L1.39237 2.92074ZM5.6891 7.21298L4.41533 4.66544L7.59527 1.4855L5.6891 7.21298Z" fill="white"/>
</svg>
