<svg width="245" height="258" viewBox="0 0 245 258" fill="none" xmlns="http://www.w3.org/2000/svg">
<path fill-rule="evenodd" clip-rule="evenodd" d="M129 207C129.53 207 130.039 207.211 130.414 207.586C130.789 207.961 131 208.47 131 209C131 209.53 130.789 210.039 130.414 210.414C130.039 210.789 129.53 211 129 211C128.47 211 127.961 210.789 127.586 210.414C127.211 210.039 127 209.53 127 209C127 208.47 127.211 207.961 127.586 207.586C127.961 207.211 128.47 207 129 207ZM120.159 205.22C120.019 205.361 119.94 205.551 119.94 205.75C119.94 205.949 120.019 206.139 120.159 206.28L122.129 208.25H115.75C115.551 208.25 115.36 208.329 115.22 208.47C115.079 208.61 115 208.801 115 209C115 209.199 115.079 209.39 115.22 209.53C115.36 209.671 115.551 209.75 115.75 209.75H122.129L120.159 211.72C120.027 211.862 119.954 212.05 119.958 212.245C119.961 212.439 120.04 212.624 120.177 212.762C120.315 212.899 120.5 212.978 120.694 212.981C120.889 212.985 121.077 212.913 121.219 212.78L124.469 209.53L125 209L124.47 208.47L121.22 205.22C121.15 205.15 121.068 205.095 120.977 205.057C120.886 205.02 120.788 205 120.689 205C120.591 205 120.493 205.02 120.402 205.057C120.311 205.095 120.229 205.15 120.159 205.22Z" fill="black"/>
<path d="M48.9443 147L45.4696 133.852H48.0428L50.4094 144.314L53.1892 133.852H55.8376L58.5423 144.314L60.9089 133.852H63.5009L59.9322 147H57.0772L54.4664 137.252L51.7805 147H48.9443ZM68.723 147.225C67.7839 147.225 66.9512 147.025 66.2249 146.624C65.4987 146.224 64.9289 145.66 64.5157 144.934C64.1025 144.208 63.8959 143.369 63.8959 142.417C63.8959 141.453 64.0962 140.595 64.4969 139.844C64.9102 139.093 65.4736 138.51 66.1874 138.097C66.9136 137.671 67.7651 137.458 68.7418 137.458C69.6559 137.458 70.4635 137.659 71.1648 138.059C71.866 138.46 72.4107 139.011 72.7988 139.712C73.1995 140.401 73.3999 141.171 73.3999 142.023C73.3999 142.16 73.3936 142.304 73.3811 142.455C73.3811 142.605 73.3748 142.761 73.3623 142.924H66.2813C66.3314 143.65 66.5818 144.22 67.0326 144.633C67.4959 145.047 68.0531 145.253 68.7042 145.253C69.1926 145.253 69.5995 145.147 69.9251 144.934C70.2632 144.709 70.5136 144.421 70.6764 144.07H73.1182C72.9428 144.658 72.6486 145.197 72.2354 145.685C71.8347 146.161 71.3338 146.537 70.7328 146.812C70.1442 147.088 69.4743 147.225 68.723 147.225ZM68.7418 139.412C68.1533 139.412 67.6336 139.581 67.1828 139.919C66.7321 140.245 66.4441 140.745 66.3188 141.422H70.9582C70.9206 140.808 70.6952 140.32 70.282 139.957C69.8688 139.593 69.3554 139.412 68.7418 139.412ZM80.944 147.225C80.2428 147.225 79.6293 147.094 79.1033 146.831C78.5774 146.568 78.1517 146.199 77.8261 145.723L77.5632 147H75.422V133.477H77.8261V139.017C78.1266 138.604 78.5211 138.241 79.0094 137.928C79.5103 137.615 80.1552 137.458 80.944 137.458C81.8206 137.458 82.6032 137.671 83.2919 138.097C83.9806 138.523 84.5253 139.105 84.926 139.844C85.3266 140.583 85.527 141.422 85.527 142.361C85.527 143.3 85.3266 144.139 84.926 144.878C84.5253 145.604 83.9806 146.18 83.2919 146.606C82.6032 147.019 81.8206 147.225 80.944 147.225ZM80.4369 145.122C81.2007 145.122 81.8331 144.865 82.334 144.352C82.8348 143.838 83.0853 143.175 83.0853 142.361C83.0853 141.547 82.8348 140.877 82.334 140.351C81.8331 139.825 81.2007 139.562 80.4369 139.562C79.6606 139.562 79.022 139.825 78.5211 140.351C78.0327 140.864 77.7886 141.528 77.7886 142.342C77.7886 143.156 78.0327 143.826 78.5211 144.352C79.022 144.865 79.6606 145.122 80.4369 145.122ZM46.2772 171V157.852H50.7663C52.3064 157.852 53.5711 158.128 54.5603 158.679C55.5621 159.217 56.3009 159.981 56.7767 160.97C57.265 161.947 57.5092 163.099 57.5092 164.426C57.5092 165.753 57.265 166.912 56.7767 167.901C56.3009 168.878 55.5621 169.641 54.5603 170.192C53.5711 170.731 52.3064 171 50.7663 171H46.2772ZM48.6814 168.934H50.6536C51.7555 168.934 52.6257 168.759 53.2643 168.408C53.903 168.045 54.36 167.531 54.6355 166.868C54.911 166.192 55.0487 165.378 55.0487 164.426C55.0487 163.487 54.911 162.679 54.6355 162.003C54.36 161.327 53.903 160.807 53.2643 160.444C52.6257 160.081 51.7555 159.899 50.6536 159.899H48.6814V168.934ZM64.1007 171.225C63.1616 171.225 62.3289 171.025 61.6027 170.624C60.8764 170.224 60.3067 169.66 59.8934 168.934C59.4802 168.208 59.2736 167.369 59.2736 166.417C59.2736 165.453 59.474 164.595 59.8747 163.844C60.2879 163.093 60.8513 162.51 61.5651 162.097C62.2913 161.671 63.1428 161.458 64.1195 161.458C65.0336 161.458 65.8413 161.659 66.5425 162.059C67.2437 162.46 67.7884 163.011 68.1766 163.712C68.5773 164.401 68.7776 165.171 68.7776 166.023C68.7776 166.16 68.7713 166.304 68.7588 166.455C68.7588 166.605 68.7526 166.761 68.74 166.924H61.659C61.7091 167.65 61.9595 168.22 62.4103 168.633C62.8736 169.047 63.4308 169.253 64.082 169.253C64.5703 169.253 64.9773 169.147 65.3028 168.934C65.6409 168.709 65.8913 168.421 66.0541 168.07H68.4959C68.3206 168.658 68.0263 169.197 67.6131 169.685C67.2124 170.161 66.7115 170.537 66.1105 170.812C65.522 171.088 64.852 171.225 64.1007 171.225ZM64.1195 163.412C63.531 163.412 63.0113 163.581 62.5606 163.919C62.1098 164.245 61.8218 164.745 61.6966 165.422H66.3359C66.2983 164.808 66.0729 164.32 65.6597 163.957C65.2465 163.593 64.7331 163.412 64.1195 163.412ZM74.6501 171.225C73.8237 171.225 73.0974 171.094 72.4713 170.831C71.8452 170.555 71.3444 170.18 70.9687 169.704C70.5931 169.228 70.3677 168.677 70.2925 168.051H72.7155C72.7906 168.414 72.991 168.727 73.3165 168.99C73.6546 169.241 74.0866 169.366 74.6125 169.366C75.1385 169.366 75.5204 169.259 75.7583 169.047C76.0087 168.834 76.1339 168.59 76.1339 168.314C76.1339 167.913 75.9586 167.644 75.608 167.506C75.2574 167.356 74.7691 167.212 74.143 167.074C73.7423 166.987 73.3353 166.88 72.9221 166.755C72.5089 166.63 72.127 166.473 71.7764 166.286C71.4383 166.085 71.1628 165.835 70.9499 165.534C70.7371 165.221 70.6306 164.839 70.6306 164.389C70.6306 163.562 70.9562 162.867 71.6073 162.304C72.271 161.74 73.1976 161.458 74.3872 161.458C75.4891 161.458 76.3656 161.715 77.0167 162.229C77.6804 162.742 78.0748 163.449 78.2 164.351H75.9273C75.7896 163.662 75.2699 163.318 74.3684 163.318C73.9176 163.318 73.567 163.406 73.3165 163.581C73.0786 163.756 72.9597 163.975 72.9597 164.238C72.9597 164.514 73.1412 164.733 73.5044 164.896C73.8675 165.058 74.3496 165.209 74.9506 165.346C75.6018 165.497 76.1965 165.666 76.735 165.854C77.2859 166.029 77.7242 166.298 78.0498 166.661C78.3753 167.012 78.5381 167.519 78.5381 168.183C78.5506 168.759 78.4004 169.278 78.0873 169.742C77.7743 170.205 77.3235 170.568 76.735 170.831C76.1465 171.094 75.4515 171.225 74.6501 171.225ZM81.9639 160.238C81.5256 160.238 81.1625 160.106 80.8745 159.843C80.599 159.58 80.4613 159.248 80.4613 158.848C80.4613 158.447 80.599 158.121 80.8745 157.871C81.1625 157.608 81.5256 157.477 81.9639 157.477C82.4021 157.477 82.759 157.608 83.0345 157.871C83.3225 158.121 83.4665 158.447 83.4665 158.848C83.4665 159.248 83.3225 159.58 83.0345 159.843C82.759 160.106 82.4021 160.238 81.9639 160.238ZM80.7618 171V161.684H83.166V171H80.7618ZM89.6197 168.22C89.1689 168.22 88.7494 168.17 88.3613 168.07L87.6663 168.765C87.8792 168.878 88.1672 168.971 88.5303 169.047C88.8934 169.122 89.482 169.197 90.2959 169.272C91.5355 169.385 92.4371 169.679 93.0006 170.155C93.564 170.631 93.8458 171.288 93.8458 172.127C93.8458 172.678 93.6955 173.198 93.395 173.686C93.0945 174.187 92.6312 174.587 92.0051 174.888C91.379 175.201 90.5776 175.358 89.6009 175.358C88.2736 175.358 87.203 175.107 86.3891 174.606C85.5752 174.118 85.1682 173.379 85.1682 172.39C85.1682 171.551 85.5752 170.825 86.3891 170.211C86.1387 170.098 85.9195 169.979 85.7317 169.854C85.5564 169.729 85.3999 169.598 85.2621 169.46V169.028L86.8962 167.3C86.17 166.661 85.8068 165.841 85.8068 164.839C85.8068 164.213 85.9571 163.643 86.2576 163.13C86.5707 162.617 87.0089 162.21 87.5724 161.909C88.1359 161.609 88.8183 161.458 89.6197 161.458C90.1456 161.458 90.634 161.534 91.0847 161.684H94.6159V163.149L93.0194 163.262C93.2698 163.737 93.395 164.263 93.395 164.839C93.395 165.465 93.2447 166.035 92.9442 166.549C92.6437 167.062 92.2054 167.469 91.6294 167.769C91.066 168.07 90.396 168.22 89.6197 168.22ZM89.6197 166.379C90.108 166.379 90.5087 166.248 90.8218 165.985C91.1474 165.722 91.3101 165.346 91.3101 164.858C91.3101 164.37 91.1474 163.994 90.8218 163.731C90.5087 163.468 90.108 163.337 89.6197 163.337C89.1063 163.337 88.6931 163.468 88.38 163.731C88.067 163.994 87.9105 164.37 87.9105 164.858C87.9105 165.346 88.067 165.722 88.38 165.985C88.6931 166.248 89.1063 166.379 89.6197 166.379ZM87.3658 172.146C87.3658 172.609 87.5787 172.953 88.0044 173.179C88.4427 173.417 88.9748 173.536 89.6009 173.536C90.202 173.536 90.6903 173.41 91.066 173.16C91.4416 172.922 91.6294 172.597 91.6294 172.183C91.6294 171.845 91.5042 171.563 91.2538 171.338C91.0159 171.113 90.5338 170.975 89.8075 170.925C89.2941 170.887 88.8183 170.831 88.38 170.756C88.0169 170.956 87.754 171.175 87.5912 171.413C87.4409 171.651 87.3658 171.895 87.3658 172.146ZM96.369 171V161.684H98.4914L98.6792 163.262C98.9672 162.711 99.3804 162.272 99.9189 161.947C100.47 161.621 101.115 161.458 101.853 161.458C103.005 161.458 103.901 161.822 104.539 162.548C105.178 163.274 105.497 164.338 105.497 165.741V171H103.093V165.966C103.093 165.165 102.93 164.551 102.605 164.126C102.279 163.7 101.772 163.487 101.083 163.487C100.407 163.487 99.85 163.725 99.4117 164.201C98.986 164.677 98.7731 165.34 98.7731 166.192V171H96.369ZM112.323 171.225C111.384 171.225 110.551 171.025 109.825 170.624C109.099 170.224 108.529 169.66 108.116 168.934C107.702 168.208 107.496 167.369 107.496 166.417C107.496 165.453 107.696 164.595 108.097 163.844C108.51 163.093 109.073 162.51 109.787 162.097C110.513 161.671 111.365 161.458 112.342 161.458C113.256 161.458 114.063 161.659 114.765 162.059C115.466 162.46 116.011 163.011 116.399 163.712C116.799 164.401 117 165.171 117 166.023C117 166.16 116.993 166.304 116.981 166.455C116.981 166.605 116.975 166.761 116.962 166.924H109.881C109.931 167.65 110.182 168.22 110.632 168.633C111.096 169.047 111.653 169.253 112.304 169.253C112.792 169.253 113.199 169.147 113.525 168.934C113.863 168.709 114.113 168.421 114.276 168.07H116.718C116.543 168.658 116.248 169.197 115.835 169.685C115.435 170.161 114.934 170.537 114.333 170.812C113.744 171.088 113.074 171.225 112.323 171.225ZM112.342 163.412C111.753 163.412 111.233 163.581 110.783 163.919C110.332 164.245 110.044 164.745 109.919 165.422H114.558C114.52 164.808 114.295 164.32 113.882 163.957C113.469 163.593 112.955 163.412 112.342 163.412ZM119.022 171V161.684H121.163L121.388 163.431C121.727 162.83 122.184 162.354 122.76 162.003C123.348 161.64 124.037 161.458 124.826 161.458V163.994H124.149C123.624 163.994 123.154 164.075 122.741 164.238C122.328 164.401 122.002 164.683 121.764 165.083C121.539 165.484 121.426 166.041 121.426 166.755V171H119.022Z" fill="#545353"/>
<path d="M50.2976 212L48.2231 206.468H49.4611L51.0003 210.873L52.5395 206.468H53.7664L51.703 212H50.2976ZM55.4072 205.419C55.1841 205.419 54.9982 205.353 54.8495 205.219C54.7082 205.077 54.6376 204.903 54.6376 204.694C54.6376 204.486 54.7082 204.315 54.8495 204.181C54.9982 204.04 55.1841 203.969 55.4072 203.969C55.6302 203.969 55.8124 204.04 55.9537 204.181C56.1024 204.315 56.1767 204.486 56.1767 204.694C56.1767 204.903 56.1024 205.077 55.9537 205.219C55.8124 205.353 55.6302 205.419 55.4072 205.419ZM54.816 212V206.468H55.9983V212H54.816ZM60.1466 212.134C59.6038 212.134 59.1205 212.015 58.6967 211.777C58.2803 211.532 57.9531 211.193 57.7151 210.762C57.4772 210.331 57.3582 209.829 57.3582 209.256C57.3582 208.676 57.4735 208.167 57.704 207.728C57.9419 207.289 58.2691 206.947 58.6855 206.702C59.1093 206.457 59.6001 206.334 60.1578 206.334C60.7006 206.334 61.1727 206.457 61.5743 206.702C61.9758 206.94 62.2881 207.26 62.5112 207.661C62.7342 208.063 62.8458 208.505 62.8458 208.989C62.8458 209.063 62.842 209.145 62.8346 209.234C62.8346 209.316 62.8309 209.409 62.8235 209.513H58.5182C58.5554 210.048 58.7301 210.457 59.0424 210.74C59.3622 211.015 59.7302 211.152 60.1466 211.152C60.4812 211.152 60.7601 211.078 60.9831 210.929C61.2136 210.773 61.3847 210.565 61.4962 210.305H62.6785C62.5297 210.825 62.2323 211.26 61.7862 211.61C61.3475 211.959 60.801 212.134 60.1466 212.134ZM60.1466 207.304C59.7525 207.304 59.403 207.423 59.0982 207.661C58.7933 207.892 58.6074 208.241 58.5405 208.71H61.6635C61.6412 208.278 61.4888 207.936 61.2062 207.684C60.9236 207.431 60.5704 207.304 60.1466 207.304ZM64.9588 212L63.3304 206.468H64.5127L65.5834 210.639L66.788 206.468H68.1041L69.3087 210.639L70.3794 206.468H71.5617L69.9333 212H68.7176L67.4461 207.65L66.1746 212H64.9588ZM75.3458 212V206.468H76.3942L76.4946 207.249C76.6731 206.966 76.9073 206.743 77.1973 206.579C77.4947 206.416 77.8368 206.334 78.2234 206.334C79.1008 206.334 79.7106 206.68 80.0526 207.371C80.2534 207.052 80.521 206.799 80.8556 206.613C81.1977 206.427 81.5658 206.334 81.9598 206.334C82.6514 206.334 83.1942 206.542 83.5883 206.959C83.9823 207.375 84.1794 207.996 84.1794 208.821V212H82.9971V208.944C82.9971 207.873 82.5882 207.338 81.7702 207.338C81.3538 207.338 81.0118 207.494 80.7441 207.806C80.4839 208.119 80.3537 208.565 80.3537 209.145V212H79.1715V208.944C79.1715 207.873 78.7588 207.338 77.9334 207.338C77.5245 207.338 77.1861 207.494 76.9185 207.806C76.6582 208.119 76.5281 208.565 76.5281 209.145V212H75.3458ZM88.1502 212.134C87.6223 212.134 87.1464 212.015 86.7226 211.777C86.3062 211.532 85.9753 211.193 85.7299 210.762C85.4845 210.323 85.3618 209.814 85.3618 209.234C85.3618 208.654 85.4845 208.148 85.7299 207.717C85.9827 207.278 86.321 206.94 86.7449 206.702C87.1687 206.457 87.6409 206.334 88.1614 206.334C88.6893 206.334 89.1615 206.457 89.5779 206.702C90.0017 206.94 90.3363 207.278 90.5817 207.717C90.8345 208.148 90.9609 208.654 90.9609 209.234C90.9609 209.814 90.8345 210.323 90.5817 210.762C90.3363 211.193 90.0017 211.532 89.5779 211.777C89.154 212.015 88.6781 212.134 88.1502 212.134ZM88.1502 211.119C88.4328 211.119 88.693 211.048 88.931 210.907C89.1763 210.766 89.3734 210.557 89.5221 210.282C89.6708 210 89.7452 209.65 89.7452 209.234C89.7452 208.818 89.6708 208.472 89.5221 208.197C89.3808 207.914 89.1875 207.702 88.9421 207.561C88.7042 207.42 88.4439 207.349 88.1614 207.349C87.8788 207.349 87.6148 207.42 87.3695 207.561C87.1315 207.702 86.9382 207.914 86.7895 208.197C86.6408 208.472 86.5664 208.818 86.5664 209.234C86.5664 209.65 86.6408 210 86.7895 210.282C86.9382 210.557 87.1315 210.766 87.3695 210.907C87.6074 211.048 87.8677 211.119 88.1502 211.119ZM92.2395 212V206.468H93.299L93.3994 207.516C93.5928 207.152 93.8604 206.866 94.2025 206.657C94.552 206.442 94.9721 206.334 95.4628 206.334V207.572H95.1394C94.8122 207.572 94.5185 207.628 94.2582 207.739C94.0054 207.843 93.801 208.026 93.6448 208.286C93.4961 208.539 93.4217 208.892 93.4217 209.345V212H92.2395ZM98.9116 212.134C98.3688 212.134 97.8855 212.015 97.4617 211.777C97.0453 211.532 96.7181 211.193 96.4802 210.762C96.2422 210.331 96.1232 209.829 96.1232 209.256C96.1232 208.676 96.2385 208.167 96.469 207.728C96.7069 207.289 97.0341 206.947 97.4505 206.702C97.8743 206.457 98.3651 206.334 98.9228 206.334C99.4656 206.334 99.9377 206.457 100.339 206.702C100.741 206.94 101.053 207.26 101.276 207.661C101.499 208.063 101.611 208.505 101.611 208.989C101.611 209.063 101.607 209.145 101.6 209.234C101.6 209.316 101.596 209.409 101.588 209.513H97.2832C97.3204 210.048 97.4951 210.457 97.8074 210.74C98.1272 211.015 98.4952 211.152 98.9116 211.152C99.2462 211.152 99.5251 211.078 99.7481 210.929C99.9786 210.773 100.15 210.565 100.261 210.305H101.443C101.295 210.825 100.997 211.26 100.551 211.61C100.112 211.959 99.566 212.134 98.9116 212.134ZM98.9116 207.304C98.5175 207.304 98.1681 207.423 97.8632 207.661C97.5583 207.892 97.3724 208.241 97.3055 208.71H100.428C100.406 208.278 100.254 207.936 99.9712 207.684C99.6886 207.431 99.3355 207.304 98.9116 207.304Z" fill="#A39E9E"/>
<rect x="0.5" y="0.5" width="244" height="257" rx="26.5" stroke="#D4D4D4"/>
<path d="M71.25 106C71.25 106.332 71.1183 106.649 70.8839 106.884C70.6495 107.118 70.3315 107.25 70 107.25H50C49.6685 107.25 49.3505 107.118 49.1161 106.884C48.8817 106.649 48.75 106.332 48.75 106V86C48.75 85.6685 48.8817 85.3505 49.1161 85.1161C49.3505 84.8817 49.6685 84.75 50 84.75H70C70.3315 84.75 70.6495 84.8817 70.8839 85.1161C71.1183 85.3505 71.25 85.6685 71.25 86V106ZM58.75 87.25H51.25V104.75H58.75V87.25ZM68.75 97.25H61.25V104.75H68.75V97.25ZM68.75 87.25H61.25V94.75H68.75V87.25Z" fill="black"/>
</svg>
